<mxfile host="app.diagrams.net" agent="Mozilla/5.0 (Windows NT 10.0; Win64; x64) AppleWebKit/537.36 (KHTML, like Gecko) Chrome/131.0.0.0 Safari/537.36" version="25.0.3">
  <diagram name="Page-1" id="S3HChX6-ZhIQvEmfwcWi">
    <mxGraphModel dx="2109" dy="1786" grid="1" gridSize="10" guides="1" tooltips="1" connect="1" arrows="1" fold="1" page="1" pageScale="1" pageWidth="850" pageHeight="1100" math="0" shadow="0">
      <root>
        <mxCell id="0" />
        <mxCell id="1" parent="0" />
        <mxCell id="SP_JeRSVCv52ay304UxJ-42" value="" style="rounded=0;whiteSpace=wrap;html=1;" vertex="1" parent="1">
          <mxGeometry x="-180" y="140" width="480" height="340" as="geometry" />
        </mxCell>
        <mxCell id="SP_JeRSVCv52ay304UxJ-1" value="&lt;b&gt;Remote Repo&lt;/b&gt;" style="rounded=1;whiteSpace=wrap;html=1;fillColor=#d5e8d4;strokeColor=#82b366;" vertex="1" parent="1">
          <mxGeometry x="280" y="40" width="120" height="60" as="geometry" />
        </mxCell>
        <mxCell id="SP_JeRSVCv52ay304UxJ-2" value="" style="sketch=0;aspect=fixed;pointerEvents=1;shadow=0;dashed=0;html=1;strokeColor=none;labelPosition=center;verticalLabelPosition=bottom;verticalAlign=top;align=center;fillColor=#00188D;shape=mxgraph.azure.laptop" vertex="1" parent="1">
          <mxGeometry x="-160" y="320" width="216.67" height="130" as="geometry" />
        </mxCell>
        <mxCell id="SP_JeRSVCv52ay304UxJ-4" value="" style="shape=image;verticalLabelPosition=bottom;labelBackgroundColor=default;verticalAlign=top;aspect=fixed;imageAspect=0;image=data:image/png,iVBORw0KGgoAAAANSUhEUgAAANAAAADACAYAAAB1cu3vAAAAAXNSR0IArs4c6QAAAARnQU1BAACxjwv8YQUAAAAJcEhZcwAAHYcAAB2HAY/l8WUAAGz+SURBVHhe7P13mGXXXecLf1bY6cQKnVvdrZyjLckWzhEbA4PHGIxnBjDGhIuBgbl3hoEJzJ0XJr0DQwYbcAATbJwNxkmWLQfZlmTlLLWkzl3xxJ1WuH/sc6qrq7vVbdSSqqT69LOertqnzj5hr+9ea/3WL4hdu3Z5TsAFF1zAb/7mb3LxxRevfGidNYz31SX33i/9vDjoMhlppJTgNaiIWxfhL7/2EB/82q306hdiyiFS5OjA4b2nKAwYCToAlY9PDs6DdUd+BnSjxblXXkGqwVlPMwgxWYnTCqMVNZFTFp7SKaRKUFGADyB1kJcFC/EiZ1rPC4Tmlc0a121O2L4BTGQZ+D5Tro01HmEKAukhVCABIShMSaiTI1/AKXLPPffwq7/6q9x///0rH1pCTUxM/PrKgwBXX3017373u9mxY8fKh9Z5FhIkIXlREOo6qIA7Djve9elv8JHbHmZeNfCtM/De4cscawsCAUoFeBXghQJRVoJZaqMT+0pUUVJnestmnBI4D6FUlMbhpcAIQWodQRjTSOpo5yjTPmU6INAlraZmsmgzP4i4Ne3yVdPjbgyLVtNKA7YOYsKWQSmHMimUQygsTgicjrAyQK/4vKfCxo0bef3rX89tt93G/v37Vz4MJxLQBRdcwLvf/W7a7fbKh9Z5liKkQAQJfSn4/EN93vOFW/jCg/uZFwnR5BbMoAu+AO1QCJzzWO/wQiKVAFsgAOFGonHLxAQIqZnYvInSe6z3aKlwthKQ0wp8gPAC4QzSlwRYAlEQ2AyyAclcm1qsiCeb9ETEfYfnuHPvYR5PYW9QR/oeVoXUkhoqTEBrrBN4rbFAsPIDnyJxHPOqV72KG2+8kbm5uZUPH19A73rXu9ZHnucYWZaRBSE3PJbxJ5/7Jn9/3x4GtUmakxuxZYFLZwiUI9AKLzTWC7wXCGcRGJTziJFohPcIXwlJehCAVAFTmzdTSnBAIBXOepACqyVNoTB5TloMcUIQ1xKiWgOMohw6/ISgLFJEN2fKRmwIJilVjfuyghsWOgx7sDdTFDIgiQRJoNBKIzx459BSrPzIp0wcx1x++eV88IMfXPnQsQL6d//u3/Ga17xm+aF1ngPEQcTnbn2Av/ziLXx9JqVIpvA6qqZ1Nid2HZwtyAuHswJkiAoUUlh8mSOFBDhKOHLZNC5Makxv3YrVEiEEgapGIKcETgpqWU4QSIIopFCCfu4Y5oCoEccNnH+ckgITgI0irAiRNmBCNtkStrgtDXlsLuPgvjnyXk5LBUzVFFIYtC1A/VPHoIqNGzfSaDT46le/etRxsdyIcMEFF/Cxj33sqD9YZ20xNgwsNxQAoKtVQF7mBAEooN8f4ArD5NQG/svtki/ffAe33P8ohYoRzRbeFVAO0VpgbIAQR9/F/bI1j/AG76tRaPnx8RpIxnUuuOb55FpQWksziPClw2tFJkA7d9S5v1OESLASrC8J/JAzdMHV0xEv3zHJZRtho7kDRBNEmw4JwkW0rITcQtGHZhskOAlegR3NRMFgKKlTGSF+4Ad+4CijwlEj0C/90i+tW9yepaSFxeQpjThA4en3hsTNKUxS56NfupM/+Mw3efzgYXIVEk9MIXWILTMwOVJLnFfHCGg5gkoA4gQ2XaFDNmzfhpUC5z2R0tU6SUqMADkW+j8RW/Tx3uKdoyg8vX7BwfkBDx7o8M1H+7zizPN4PJ+kZzybw5BIFXR1ThZBXKsx8AVOSYwUGOMoS4s3nkRpQoJqHgoEQcD111+/9LrVuAs0Gg3e+MY3Lj2wzrMLGUKzHsNwCJ0hrfokfeDPv7yH//HpW9nbXWQgBCIKKJ0lL4ZgLQQBWoUrT7fqqMeeRixo1uq0GpOI1nYO13byLb+Jz6QtNrz7Dt5zN1hdY1FoOp15Wgt9Amv5NoacITlDEDlhIGiEmrpWYKjaiDe+8Y00Go2l35cE9OpXv7raA1jnWUkgVTUpMR6SCVLgfZ9/jN/51E08kLaZ3nEW9Q0bMFpihj0oC1QUEuiIsixXnm7VkXpPlhuKYYrNLQogUZh2jeFUi7NfcDm/tWcvL/jAV/mTL+1jju3sn9xCX9W5qhcyGYQkziDTHqoYIDDVqCOgGG1xAUgpefWrX33k9/EPV1999dLBdZ59GO+Y6wzwrQm6QvDbf3MT7/rkDcypSdh2AQtpzrC0lYlMKUQUEAYh3nvsMF15ulVHqRNKFGVpMGkf0g5B2iHMO0T5IsW+eV624QzOuuBF/JfMcu2Nd/Oery/SfxQWDAjqKBsircLmKZQDUDleO+SRAQdWaGVJQBdddNHSwXWehXhN3J7gznnP//rELfzVbQ9xQDVQjTZ4KPslrgStA4SS+CwlHXQx1kCtvvJsqw6tGuiwRpzE1OqSWuRpqoLJcsBk3uHCosvDs3uYnc24xuzk/PISfn9PhzfefTe/+sDjfPq+Lnd2YjrJJLa5ERvVKXFYLJajR+DlWlkS0Pbt25cOrvPsw5ewpwPv+cI3edfXbudgawvh9jMpBz3oHiaJW0QyRluJsh6MhaIAAUGy+gVkO11MNqSwBSmOFE9hBd4GBLbGvVsn2dnawoW5Jp9NMYXhwold5BMX8L4y4I8ezHj/IwX/cAjuzuEwmpwEhyI4IhNYoZUlM/bdd9+9vgZ6FnAiM/bcvOePP30DH390lr2NbfRtCMOCUEDTO3pGUpQ5UkJSj5GBJDOW0tpqLWA5xgq3mszYSWlxSlIEggKHRRBYTexDAhTGQD8wlLUSFRh84XBDRStvsMHDzSJjwg85JxjywmnJi85ocvl0k00RBA6IjryWc45LLrkElgvo3nvvPfIX66xavPe4UWcbi0MIgVIZ8/0cHTep6QCTdoniOnO54nAKb/7ATfT6A3rDIdZJvAqwQoPQIAX4Zaam46BG/fsYcS69B/uEAhJRjXOfdyVlqEBKmkFEMcyxUlAoSfzkrNhPGqdD3NDhS4GNLHHU45Jmnx/a1eYNZ2zApF1iAg6aHNuc4NWjadz6kLMGGY8EQoiln+cyRaMxRV2WFPO7iWNPz1ju6cGvvv96hgNLUXi8C5AqRKlg5Hk98pp+jqNsSSgdcaQIg5CBDblvXvDxe/r8wTfmmTMxBAlNF6Jcf+l56wJaY4xFI2XlEjMmjGOK3KAE1CbbdDpdHugU/Ps//wc+e0jTTy1ZLnBeI2WI0iFSjnyUrT3yAs9RjCnwrkQpRxhpRNhkxm/kW/0NfOxQixsO5sxbqCc14t5g6XnrAlqDjEW0XECNtE8j0gxFjf3lJHfn0/zE//vH3N8xUGvhvMaiQYR4oQFZTbWEW+a09hxG1rBKYnyOMENqOOpBDRs3WEg0f/nwIT72SIbRMNGcOPK0o06yzppi+VpEuMrVfreD99ye8mN/8Bk6my5luPsxNkxKRKCRWuOVxI/2hZxz4EGsG48QUYQNEwrhcOWAKOvQyBeJyh42L/hGKXnffQ9wyxAQRywK69/cGsG5Kgp0zHgx79xICFGdgyV86KYOf/C5uzgQn8nMvg7bX/RCBod24wMLocMrgxUGa0u8c4BEiX9KuNmzC1+Cw2G0xElF6B11mxGZDqo4SG16F3dkho89cpjFZcbIdQGtEcZCGQtneXPO8WgxxR//47f5+I03U3qB63Von3c++/YcJKhPU7oBxg9xosALAzjwFrzHPzkL8rOCIJsDO8QqQS5jjGgigiY6rCGShK1GEbY28KXHD3Fg2fPWBbRGWC6Y5cfGwvrLb+7lH29/jEf27IdsgXZi6ex7FFlv0x0IjOnjXQbkIOwodLTS0dgs/lymJVISaTEI+l6xaEP6NmGg6gx1Dbm7w0TS5vHegD3dI89b3wdaLdgCZz1eCpSuvJ9L40BJpICZEhILbdkHPwAVMtST3N6Bj375Af7kmwdAeYT0OEwlLBRCKIQMcLZY+YrfEWKUHGS5gJebv4Wr3F3E+G9c1bwbmcnjJuc+/wpsHCCkoqETijSlFIIcT3KiOIhVgkEQFIatQchFG2p8+ifW94FWF0oiwwCp1NIhAdiixBSOaQ2tCAgCCFv0aHDX4YKPf+kuPvr5G2Fl517GiY4/3Yythsvfj+Boa+JqxcWSXDsWfcHe4RHfuHUBrRI8YJzFuCN7MlpJtJAI5wnKDiLrUFjJoki4dU7xns/fzge/dBsHC7XUKU80Qqzz5LDKUwjPgi14bNhbOr4uoFWCweFEdZdeMg5Yj0JUsTzpLMSaBQI+c3+P991wD5+4fS8Hi4ipcy4/6lzL10qrZfRh2Sizcj23FkYgbSwKj/Uw9Efe77qAVgkaSSAUSlah02VZYozB4vESaEwzFHVu2Z/x5/94Ex/+xv0sqBZy4w769sjU6Hgj0GoQ0fLp2zHvcw0QZI7EKWoqIFhm9l8X0CpBGIsYpYDy3qOUQkcBIlR4DYfVBJ+4+xB/9LEbuHXvIqY+jWxM4IA06x/VIY8nomealZ4TJzu+2ggQBFISyOCofbN1Aa0WCguFweclpihBCpyAoTXM9Hp84I6U3/3UN/nCnY9ha9O0pqZwJoe8hxy5Sq92EY3x/ujRci0IyEqFUxqrqnCJMesCWi0EIUhdhQNYS2EMgyJn/8wh7n/kYX7/Izdw36wl2XYOhDGdmYNgUoJaiBse2ZhYzcJZy5Syarn05P6IoedJC2gtzmefCk72HRT5AHDYUZKXcvS/BbLckQYaI4DIEuohpkg56CM+fWCCX/jEfg4UkixukCPJ87Sa6xlDmZWosIHVDifBUnlcIypBAlWsT3Xb/6e3k6IBjXeiat5XOa5k1cuENFS2RkGVlU5TLe4cCLP0/NXalFVII1GlQPsjsnnSAlqn4mTTkDBKAIlk5AA9doK2HoElpsp9OEwNPV+jn7T55Ffu571/9yl6pQelkFIuNUbtZK+7WjjZDWatsi6gpwmPxBiHNQYlHUo6hDdIlxNKiyi7ZPkQV2/zmE3448/cw59/7mZ2dwwDEaNGAjoqlOE4G5OrHe/B8+yZtawL6GnAe48xlc+ZVmIUBWrBlRhbYrzDO8PQSR7owF/euJt3ffbbPJrG1M44n549MtKsnDL7sTf2GmClaMafZeXxtcS6gJ5ClncOrSEMdLUG8B5wGOcpRIBREXk0xd4i5F2f/Bp//Mkv061vI9p+Pp1eCqbAjxxHrbVYW+UfWFqfrIGI0vH34EcZp9eyaJZz2gQ09go+UXuusiQiV62XKQ0+z6ssN2ENophUKb41Z3n3P3ydj3/zbop4CtXeQJ6lYIZQq5xLvV/mnMnRu/trgSURLft/rU/n1gX0NFHmDlcaTJGRlSVWBRTAoQxufmCG3/vEt/irG++ho9pM7jwbMxhAdxbZjIjVihFmlBNBKYVQak0IaaVIVv6+VjltAhrfaU/Unst47wlDiQw1OgwJggCEJAfufnAvn/3STXzq+ptRUzvRrY0sHDiIiBTBhkncsEvWXTjK2iZGAho3scyDe7XzbOsLpyygGWDAaBqSj5qHnhAcEgIbBORKk5lylOGkSrTnVYAIAnBgS8gLs1R7xVpfneeJU5KtCYZ0KXxWfT8GSCtXfSOhrwry7PBo0ydG+wYp8Kl7HuI3P3sXf3hXDXHWRQxkiPUOEQBpFzMcInQDEU1hR+uccf4Cay3GVHE/UG25PJVtHN9zwjb+4NIjpEMI8EtRryXgCLwhtA6cJ1eQaYlDElp9zA13tTXh5VFtzCkLqGksiQcvHUQGH5XkJkNmKUmaQr9DmA1phDFJXCcME0Ikst/DLy5S5hnWpShdbSVaHFZ5TFQVhV7rRCRoESxtHFrhMdZUtT5NgVIhne7j0EpJa/BXn72Pv/jw/eyf14jayrOtXZZPJo/6eTSCLjfDr5U9rCfilAUUW4W0VeKFIZYUhwwkDaloO0VcayLCOnOFZO8AHu/CTKbQSZOg0SKIVZVvC4sxA4wbLu3ML6sesWZRLsCWVXV3K4HYo7VHUFCTgEoIppscJuOD376P933xEW5+LKYvpvBq9ZcPORXGchDLZ2lL9o6jhbPU1khA3Yk49ZDuEpAGa1N8IEBEOAKMh+HAcsu+OQ70Cx6bKzjUc+AcWxuKS3ZMcu7WSS6eFlXNFpeTp32klIRJA0NA5jz143yHa+qLNWBKh0gkBgdYAkokHjLDIG4zD3zoy7fy19ffy758G3mwgdR2IRkiilO+lz0znCSkW3oHwiE8eO8Q3uOdHU0xLarR5sIrrqDUEbnQBHGNIssIhEAJseoNTbLqvThfJXYxv/J8+E4ElOEQRUqUGYhqoAJmgJv2d7nz4CE+/s3H6dmQBVuj7yK8dbRkwc6WZHsr4Kcv38LZ2zawc1IQ+ioHAAAiwLqqIu3KhfKaEtBoELGBw2DJ7JAATUCEGRhuNyGf++pj/PUX7uZxq2ievZFOdggWuoQbd1H2VnkNnpMISPmxnR6Er9Y5zltwDu8tsvnsFNAp3/YWGFBqoN4EEdAp4Cu7S/7y9gP83jcf586izaNM0qltwU7twE2ewWKykTvSiC/OeH77+jv40O37uKcLQ0FVc9ACpUWJKkvmuI056mKtcrwCKy3Cl/hyiLQCqeoMlebxNOK9N9zB39z4EIfMdmrT59LpzEC5iJ5uUgxWuXi+A+TY6LCsc1Wj0rELc5ZZb9cqpyyglvUkMsQoyWOF5+MPLfChux7nxscMnXQzqjEFYQKuhLILtl/5GqsAq2t8Ka3xVw/O8d5vPMb1D/fZ2zNkTuKkB3Ek3xlr9EvtFD2Mz5A+J/SeRNYogXv3w4e/ejefuuMgB7Uk2qYxMoWuQssdtMPNMDySa3mtclRZ+xXi4Ym2OZ4rG6l1E6K8YBbLlw48zt/dcwefe2APi0UDueFS4tIQ5n3CwWEa/YO0shma+SINm1FzDs69gocHlr++6VY+ftO3uPvQYQbKY7RkYDNYo8IZk1LgpQEJ0guEkcwtwhe/cTd/8refoqM2IqYCFod3k/V3MzF9PmG6i7nHhrQazx4z3FGWt6Nme0ffHNfytV7O0hroH+69l21AVHbAxhBEDBXEFMj0EZAXsruED+5e4G9ve4z7Dg3RcQOtBVneRajplec+Cp/sQQWbCNImtltyZl3x/Rdv4F9eMcEFTcgHDxI1N2Fkm6Gr/C0TDSE5MMTaFqyw5jyddLIOrbiJcJKibwlrCq9gCDjhaboUjIDcYnWDuxbhj264lw/e9ThZYzPaHFp5yqOw5TNryz9pZ5YjHz438r9zR9asEoENgLS6EcogJPACl+dooBEnbJx9gEde8mKmzrqc5gFIZYckKKFvcVObEcXqnsba0RqQ0Xdl/31VJ3VpBNpsQBUlqABiR6HAOZAugGAXByL4u1t38/7PfJ379i6iahsQQYucEBpHstWfiNBtwC44TCmoTW/gEPCRO+7hj79yD589UBK2z2BYCnqdRRoCWrpak6alwjKJUuool/6nm2Zcq+6uAsKGAgllnqOLlAYWkztKH1A0G3zjQI/ffO+H+dy3vk2t3oR0eCTQ7ARt1WPtkiFBiCOxSOP1TU1apK66kzMCh0YISdYfMPPoI1x3xaVsmqhhhhaT5WgpCcMAKTWmXN0GhCdiSUC1tESLgEzW6COALnVZZY6czxL+25dm+Mu7DrC7ryDZTBhMUmYWn5cQxEef9TgkRRtShS0dRSTpBoLdCz3ed+9hfufmQ/zjQ10OuBb19gSSHJF2CE1BEOhVsU8kXVBFUAqHlwZLRhhDFEhEmiGSBsNI86l7Fvj//8PXuHEuZUbV6PQHaFfgnHjCtuqx1dYEvpoFaCmRowmb956gLCHPAU0c1bFpRjk3x3mTMW957XW8/iVXs2u6jk+72DwjUAIZRggpq3COVf7vRBxZA4kUZGWI9MYTYhA4bp+F/3NThz/96m086GLCnRcRN6exWV4VopUesiMVu05EUXiiMAKRk3YPgjSw7UyyaDNfemCR//jRu/m7uzs87qFAgitAlmgPVDODZxYP+XBI6XIcJbkZ4Mq8EpWTdIHP3t3hf3/iBv7xgQPk2y4g2LITaxx16fFOPWFb9UhZDb/eV6ZpWxl+JAIlJJmJQbfAaYrOIs2ix4vPnuD/+u7n8etvuYwrz6oxGYIqM0JZuTm5UVjGMzGjOF0sCcgkhkKC8tB0CfQj7ny8z198+wH+4L5HoDEFtRaFM2SLB3HDeSZjqMcKiuHRZz0OqRggY08QGii6YDPiRoNWbQJdBNxjt/MHN+7mv330Tm7Y3cPUN1YXrUxJ8g5FURzJlTaOh3k68TAYDPDWILEEYcjsMKNXKmytxl995QC/95HPcufMEDafTdrNSHtDGpMTOFMcCWc4UVvlSFl5fQuOeN6P10FaSnLZRqg6ZBmNYoHXXrqVX3vrK3nby3ay03WoCZBlQSAgiRO8F2RpibUWKY81Lqy2diKWBDRQNYbOonx1o7njgOS9N+3jw/cdIJWKpDYJeQlZD0KIE4EzGS4v0eEplEEPPYUoqrlvEEFhyA7PYgcdphsRbNrGrE/4x90D/uL2g3zikT6HbQJBgghD3CiYzC0r8fF0kjtDc6KOcCVFmiJIiNub2Ock7//aHn7/U1/kgY7Bx5PgJDgBRcFw2MdqUX3TT9RWOWokFCEEkiNrH8ZiKlLswgHOrBW87VWX84tv/C5edE6DwPUg72AyKNMcKQOCMMQ4QWHLkffC6g8IPBFLl04QEylJL3d8aV/Gex5Y4COHFPO2DXEd080gKyGMqE22IUno5JY0BU/j6LMeDxXhrYYyRNMCalAaBjYlD1Iic4j6ZI2svYXP73P87o2P8Z5vzXDbYU+qkyOu+8+ABQ6g0IYgVCjryDpDrNMMgL+/fYb/8+mbeKxTwMRWvBUwv8B0o0azEeOGHTLpEeKJ22pnPOprqQiURmuNEgLrLGVRsE3Oc90ZAW9/5QX8/PddzlVbNKa/QG+Qw8Q2hALjNKXTlB4KJ5BSoaXEmfyYO/5qayfiiIAGkCA40D3ER267mfc/8BiH5DQ0txENcxqqjlAxlI7hMKPvQNTaELWxeRUx+URIG6BsgskCslQhdBsxvQkaEfNFhyl/kMHCo6S9Lh3Z5puz8P4b7+dTtzzKnowlK9wzZYkTUjLIBkgH7Q1bUMBfffJ2/uTDn+bhVMCOc+jOL6IcbGm3MXOH8YMe8eQErsirVDxP1FY5bmSFk1ISBAGh1gghcMbii5LLpgU/+YZreMfrLmVblOL7h1CBQrc3cBiNjsAJTW49hQXnBXJ0PY1du860R3zh7voqt6YT/NyHbuP2uSbtZBODhX0EbUsqOgg2rHzud8TJuntQFpTWIpREBRpXGGRhmEwabJ3exPtekRJNTBDXa8RAa5xmTBmycoAIG4TCIyghLyCM8SIiBXIPEyNLygmFV3QhSChKi5AhWkuEh3I4IEhCcEPKzGEakzyWwl988QHef8OtzGUaNp2BzJ/Ym8A9gSVnNSALqEp8a0SosGUGvSFYQUPVUO4RTDDFQE2CTyqLW/8wl04pXnjRLv7r956H1po4rjIIee8xxiytWTOpeftX4IFckmSH8I0dDNOCFgv0ggQ9yu+9WhHiiKHHH28faCGv85EvfouF1EIk6AxniWsBznmQydKTnyp0ECBDjQw0Smuklhg8aZkz3+vwU5+9nc/e16E5gFYJqRwyHwywUhP7NiWKEk1pAzJXWYwEJTVfMnkKd3ij61gRoMKYzDiywuMFBLU6IBkOwTcm2TeE93/yZj7wqevp5p72lq3oNTyHH1Nv1pFS4rp97EK3uuvEDVS9RR4HdGpnMaAFhUW5lM1xyrXbA37wuvP412++Gq2raZ1flvzEj3J8h+GJZyjP1JT8dLEkoG93I/7my3czb0HUJJSzRE2JsyWBOPk+z5PFKoWTVUNqZBDhdUDqPAt5yjcG2/nzW2b5y68+zsGFIUoqQhSlqe7s8egaGKnxQaMq5W4yyBbAzR/9YsfBSkU5yv0RhRo1Ep0XkBUlttXm1n2Od3/qDj5286MczhNcOIEzHtvvrDzdmiMrUoT06CBCiYiQCCVDLI4yH4DcAu3tgCXu7Oal2yT/4YdfzM++7jLODgrCMKxyNIw8q51zlYVOa8IwPEYkfmyEWOMsCehrh2F/WiOVMSoAwhyvq3RKgT3xHeR0kTmDcwbrDKW3OClQcYCLFIX0EJ/DbYOA/3bfY/z3bzzEbY8b6j4mVoKuL9EuJXQlvixxSlAgKVRIfopmYgVk3T4UGaEowfTJhl0coOOYOxfgTz75dd7zuZs5yATt868maG5k2B8i85Mvglc7ZdpDImglTZo6QVmBN3Y0rQshUrD/Ydr5YX7spRfzS296MS84s0WUz4HPjlmfHpVFdcRYRCu/j5XiWkuoiYmJXwdYvObt7E0dRDWcMiBKwOONQpJg5JObppzsK/JSVK4i1uMQ1TOExEuJVwq/sAgTbfq6xR37Ojx6oEsSttgyGdCOHSKfB1eSlwXWCVQQYISm1Amo+iia48QXS3pH4DK0ckBJmQ4ohabvNbtnu/z7P/sa33zoAB3VwLQ3UUiFc5ZEeGIJ+bKOclyO/7KrBwVKBnjjMbmhtAUIi9IOAk+8/z6u2Brz1uvO54deeikXbaihbU5pIIyauNGe0Fg845/H33dmHR9/HGYN6LKPDycwxhKLnEIFq96OIsTR19d/4V2wfAS67/ABmlMboHSIoUOriLQwVUbAp2OjQqjKD08osB5rLNa6KrbTe2jnkA2pDRNMeCbXdwX/9mu38mdfe5CFQwoXNyCq02g0CGQJrspU4kfZb06KtygNFCmUhri9Ed+Y4IYH5viPf/pxvr2/y4JMCKamUKHH9w7jerOUziLC+JgRZ2Vb7YQqoCxLBmVOqT1aC2QxwB3eh9jzCK/bWvKr//yFvPMNV7Kr4cn7C4RBRNSYoGureK7lrFzbrLxxjf9+5d+tNZaU4XWBKwbUrCBxAZRVBn0vNfbpiBZ0DoFAS4XyAmmXVwdwxJNtGHaxg1km6hpabfbP57zv1kP81tdn+fSjBY+SMCAiiTSxG1C3GZH1BCtf6zh4r/CE5D6m0A0WCbjhcce7v/QAn7uzS7ztHKg1KF2Kdj2QQ3ApRZnSzdd+WiFbOrxxEEhEPYTAU6Pgkqkmr7/wHP7jj30fL9zZpgG0o4Bmo0Gel2RZTk19Z0IYi2e5iNYqSwKanI4Z9hdIZEBD1TEFSBXiEJinI+9UWeCdQyLQQqLGySZGLXt4nqhZhy3QSXfT6C2wdeIcZsKd/NY9h/jTL97D9Q90mAesd5UvnRsSu4zEnnwEGBqJCxNUo81ARXzqlr38pz/6a75y82OE134f8wtdnNaEAeS9QzCcIaxp4nodlz25EvKrAeElaAVaUtqSLOszkYR8z3e9kP/yc6/mrI1tJuIA4Qs63R55lhFFmkYk0L44aq3DyN3neKPSmJWPrVWW1kDf89P/gYX9D9EtFpjXIYhJfLSBhukzke2hHzaXRgOcqzZhhEAIiVSqSjn7JBCy8u11eKzwuNH1EN4jPMg4rFKQGQEioJSagTMUlIhI8dBBuOtgj6I0bJmeYjqp4a0nKzUi0mRC4HyJ9j3wQ/AZFJ5SBOQS4sHjEDeZQfCur8zy2x//Fo91JHp6M3bYQeo+khLvQOkaMmyC0HhnUJHEc/S8f2UblSV46to4TofKgC+g+n10vB158l4Kqg7JBrAhRDHtyOO7s5R6AypK8HkXPTjIy3bU+Levvpx3XLaRTabAB9WWhneCIIgQUuMcS97kakVyx5UjUmYdH3vMM1N6VNHDh+3RGihbE2ug5YtY7z3+C++G5SPQ68+GwcwBOn1NMrkT3IAwP0TcaHJIbV66OEgJSoNUQFVIydqnYYQ6CWoiYbH0fPy2Q/z2Fx7mk48WDMI6tZpHZzPULehckZs2hZyikJP0BXjXo8YA2jt5aC7nQ1+4nxu/+W0WB0MINA6LK492ll05BVk1LLNy+ap3V81aOjN9pneeSbPuYe4B6nIeOZilc2Ae0zwD/AK2s5czZcGPX3UZv/jdr+Kll58FrYRCm2NuCCvbc5UlAX1XYnjTi68hmdrGcN9hYumYVBkz83OQbK3+SAikkGil0EohxahUx5McfU4HoTJ0ZcgDWZ2PPCr4028v8on7hyzmBegCFjporVCBYDGDBQM6rBEGhrz7GI8a+PhND/HBL3yL2x7ZTyYCVBIjlQdVbQouNwgs//9U2tPCsjWFGBfhUqpq0zuY278X351lZ8ORpAcRaQ/qkzjRhsFjXLRR8rYXXMAvvuQyXntWjSkNhYa5+hFfxBO15ypLnzy2XX7i1efzI9ecA529FL0FRFjtwqN9NVUT1TTlae8Yp0AhRGXBq7XJalPcvL/Hn37xDt5902Pc0WvCVBvvLLafskl5NmvwZcHcQNJVW/idv7uTj970IPfPlqS6hYjreCXwwiDUEaFwAtE847gjVRvEyJQ89g7QQQB5D4RE1afomJj5VLFp8xls3TANu+/jJbs28vaXX8HbXnMh52xTYCsjiQRCwmMEs7I9V1n65JaIqTTlJy6R/MyLdtGmZLZTENRrKD+LlgqJqAo6WYs1Bj+ynEn5zAeEWRmDzSGfJSpmMGXK3R3Le+91/OqNGV+eG7IYKaJGAcOHoLOHRIY8stDkXdcv8KEv38bdB7vkcRsf13DW4soC7yzejvJ8P0F7xpHyqCnc2J1m7I+mXZekXqNTxnSSXSQ7rubAwVl6D93K667dzn9/4/fw5ivOYiIGgj7UCggckYfmKe0DPDdZEpBTNaJykStqA37mxTv5yZddzoTpUj5yN9O6RLgq9gPrqh1q6xDOIz2o1bBLmOeoMKAZOHQ6iy/6mGiC3Xaa6x+D//G5b/P3jy6QiTrU26BjHj405G++8iC/8aGbyOIY32wgazHGOzAFULnvy3Ek5nGEsySgk7WnGCHlUuJ57xzeGHxRQJFDnjHdCEn7XSgtyJDB4f0EvUO86aod/K+3vYCrdtTYGHiGaYcUT4HGo6CwhKvg8q5WlgSkbZdmq4FSkrNrOT91zQQ/fVWbqbgkN5rSVNGDfhSCO144eu+XKgc8o9iSUApUFCOiFiaoYaVEYxAi567OBP/jQ9/if372QfbrTdyRbeDX/uJT/NFHPwHtBrXJOjKUWF+M0oxWNSSkF0tZKWG0zlgxlVsNHPVehFgqQoxUIBWHOgVxHLFpUpEcvo1tw/v5zR97Df/9p17OGRoIDKnto70ioUlIg3zosdiqUPU6x+VIOMOt/8BintCc2ILK+vjBYboTO/iduy3//dMPgbRVaqPRnHflWkjop3YadzJLTzOgKofoNao9Taw1RXcWnXeoK88s24mKDue3NOe0Aw7uf5ib7roDwoj2BReRzs9R9AegY1TUwBYWjAMdIYXAjTvR8rex/D3Jk/gLnuT9P2msXRLOeF2y/DsrRQ16B6gt7uHVF23mF978Wp6/s40uHdmgS6dV0JJNGmVS5aDQQABWw5CUJk/OI38hL3nblx33pp5ocADX2EmWFUyqLoOojixXx43oxBxZ53nvcb96DSwX0Ndv+RrNWg1lBWVh0EmNFNg77HLnww/wa3/nmN0QMWwISAvqHUfLhfTqkn5NINPKmRDAmMqsPY4LsdYi9FN7GzvZSKBVD2NlVTrBSYQpCYZd3OJhbH8e39gMWqNUdWNwrhpVpdJoLRl9pCN+qXKZmIQ41mF1WecVQiCW1XBZ3rHHP58sN/RRiXuO83yvJBQFOEddCKTzZN7igho6qVM8djO7mgFvuuZS3v4938WuCcFwuMBC2aHWblHP60szi+MJ8MnSKS0/+sWSu/ueJDuIbJ9FllladOjoiHjkVb96Ofq7KP/DinigKKohGfmiOVGVYwc21ZpcfNZZ/N9vvJJL4xQe3wO+SXDGxXQbk/TzgsCs/p14Mf5sSkMQoaMEVauhm03CienquPdY43COyuooqw3iIi+X0hstfWF+1Dh6Wnc8Vop75e+nhbyPVp4w0pgwpIwSRNjAGks+N8vrz9/F21/7Sn7g5dcxGQpsllMPQrY1N1E3wZJgTqdongss9YdARdWvQhEEARpBiCPBs6sxyQ9cHPATz9vBdVs2w2LK4lyHQaNJ3JxArvbKAlCljnK6quYlNT6IIK4jmpOI9lTlNOslGA/WoVCo0Z2c0lQZaDyjHGHLvAqWDxzLheT92KccsXKNsowTHV/J8nPJ47QNElSRU3qHiWMyaygWZpgSBS8+dyc//bLn8WMvO4/LtknqkacoUlAh0odE5dFm6uXr21N5b89ljrqhmnFn0BqEQFiDdgUJlprv8oNXbedXXnkVr5n2MH8vDA7gwjo+GG20rmKsAayoIuQcWAS5CinCGnncQuoaBBHoAJAYa3FlJZpgFM7r/bLUtiyzsK2cfY063fE63/jY6e6cxgQEUQuva9jFBegcZPsEvPXas/l3b7ic11y1nQ0xhDi8KohaSbWmHS12lotn5Sh0Ot/ns40lAUmqu+mSV874OywMriiQUZuagFdtV/zaq3fytiuaNNM9FDOHKJLN49OsXryqpnBI8L5yoPAeKwN8UEO32gTtaWSjBWFchVQUBaYc1SZ1HuFGnX4somWjzfF805bXFl0umOUd8lSFJI5Tt3R5WzQxpW5Wqcd6c5y3pc7Pf+8L+NffczGv2gWoFJstsNg7SE5BjiRHUgiPVcfG7yznVN7fc5WjBCSEx7iyWkCLyudNRTWUjnHAYDhA+jmuPSfiZ647ix85byNt0YOZh48+6ypEaoVSAqFGPc7bqqNLBTpAN9oErTZRexJZr0MYVHcRayltNYXzvhIRLHPeHLWVHVpSOcKuLPtxPBGdFho18oN7kHN7eeVF2/h/vv+7+OFrdrEtKcF2GOZ9bChImi0EwUjnEi8FZoUBcaWQjieqdSqWBCRwaOVRQVUg14rRFywkXiqSwRAVWjqxJStzzp+c4MevuYx/cfkmpqLdR591FWLxWBzCOYQzCGeqYlAIpAjIlaRUEhtF6FoT1Z6ARh3ikLHT7FEiOmr0OXqEWc7xcisvF9HxnnM8Vgp0ZYvdDJvbBW++6gx++TXP582XbmHKFXT7A4ZSM0DiVIymRp2YyChCX03gTrQB8USj0joVSwJyZQZYlBRIJfGjrUQD9DODsH2ioMpgOq/rhDrk8o0hr794Mz907ROXNlkVOAOjvAvelZWLjrMjTwqwpqQsSwrnkJGm3mzRmGyjkwSCZSZov2z0WFbyYiXH6OKYA0c4VRE9EdnBu3nzyy/nv7zjVbzyvCmiziKyLJGNCeZUnbg2TZZ7ioGBErSTyAJU6VHfoZjXOcIp10gtiuKoPQI/yvuVZRnGGH79c4e54WCXh7oeoglUUqPmU3p+AIGHvq4WrUIgVDV1WI58ii/eyTqHLw2oKrZpvJ9lra0SClqHOPAQ0oFGLE3JCuGx0o7MY6N50AmmPn6lw+WKvwvDzeRpD9yQQFcJDK1xODQ6iClMgxhDIHMK3ye3A8AzLRM2hk1++y0b2LplK1unpgmBAIs0phKudbgwXno/z8SIsliYFftAZ5NlZmkfKFkFzixPzLJr6T3mP1YbqSuu6okJgqBK5zpKXSRHGSqjKCIMQ37mdRfyhnOm2BJnyGSIquf06ENeEpc1giBAjp7rRzEqyz2In3GWd/aVd2Mh0I0molbD6qBKTWsN3pYINzbAjD7L6HnHdNIn+Jzee/L0MPgeQluEdqAMIvLIwGHJieQCWb5I5gJ0shl8TJwP+O4LN/JbP/1yLjjrTDZPTRAAHldZVHUAOoRl4lnn9HLKAjreXFgIUaV5DUMubht+5iXn8M4XnMul8ZCi+wiojKTWop5F1d+pKh1slX1nXG/mxB3raWU0OvqRJ/NSSLIQIAVqYhOiNYmN6xitsaN1kXaOYOxou0w8438sH/2WCYwV+0T4FKENQhoKl5GbgtIbjCuxRUbScEQRlMM+WWfAeRs38+OvfgHveNX5vHxbyVRSI6FK+F9kWeW3OF7DLssos/IarvPkOGUBMeoIS6UtliGlpG/3sKtl+Kmrt/MvztnF2YGHYkjqJSacAO/wOJQYm/xGT656z1HneyYQy/z7lgtIjILTbNzAJa2qSnm9gUhihAoQ3uOLykpXWeZGC/uxOEa/H8VIRMtHuUBptNQ4L6uELjZAyRqBrgEBi9ZiXc40XV407XjHdWfxi99zMdfuaEF3L8LluHKIL0d+1CrAjdaww7JKcrguntPPKQtoecc66g494rAyDPMeDQ8/8bwz+LkXvJCz6wkMF+gEOWWZ461BeEcgBUpLlBJI4VdFeYujOtfykWL0WOkETgXIWp2wPUHQaqOSGkYGlH4kF39kv2hlO9k+kbMhpgjAxCCbqKhNLBvEPqZGBDMd6qLgBy7bxH/43ov4iasn2EGGdwW0z0BYj/KCMAhIophgtMYUQBSe8mVe5zvklL/Z8bpnpcvHuAVsJkNDAfUAfujSNj//4iu4ekcNOg8udUohqopmehTdeszd+Rli5Zpn5Zpo7M6jlEbFNWS9Bc02Pmni4wZCqaV4nHEw2/KbzEqz87H7RFViEmSAUDG+cKSLi5SL8wT5gOmpiLe88AJ++nuez4svaVELFnH5AmkpSQnQQYzWEVJUyT6sszjjqDJXnJhj1nvrfEecsoAYiWgspDHjkWm6SGjFLdKGo28WmQ4t//LiBv/66p183yZPECi0lkjhqx0Zb8BZvHeIVXABxx1p+U1BLAvZ0M6grcV5R4GgDAJsVEO0JxAT01U+O1FVdPCjoENnqpIgY9P38Trq0j6RMkBRNZ/i0jnc4DAbE8Pzzp7mv7zyPN75iou5ZHsN7w2d3OBqU4RRzGA2BSTGCowZeXY7D67A2xJ1jK9RxfHezzrfGacsoLFQlncEPwpVsNZSWwyQGXSCjF4zBQ5Rtx1esznm/37ZFUQ6RI1Cv53zOHPsNPAZZcWUbeWULhIS6X0Vzm5LrPO4IISkQdCcRI3cYfx4+jdqJ/p8Kw87kYMbgh/gfR/EgHbDceVF23jDq6/lJ164g3MaBcJbFlSDxfomZghxDja0E0pXlax1vjLsaC0JAo2UvvK6eAJO9B7XOTmnvA90MtwoG/+4442FNo5i7T4U8ktf+jIfHhponUVtUMMf2gebC9KtFg5OgjcEGgIhMKWhyCyImCBuUJqTFzJ+JkkCg8lSyn4PBgPICoSxRKMpa9luUuY5vsjRGpIoRgqJsYbCWMq0TnvbNP2yg+3tZ3vT89arL+HtL7qKna0AopWvuLbolJa3XV9yV98TpwcQ7bPJ0pLmOB7o+IPkKuJIvwaw/+la+E5GoCdLcC78P29/KW/cuYHk8KOkbp6JKy8iLZuwp1mZi5zAOonxIFSADCIQUBarP6uFdRInQmRUh7gBSQ2iCCMlOZaiO48UliiJQGrS0pFaQeY1pVXIM7fTmdmPO3yAs1zJ26+5il/+gWvZtjHA6icu3rXOM8fTJqA8nOPcsOR/v+Zy3rItZjLucODgfdQ3nkO0sAGCGII6joDCCHLrECMHUNzqD9grXQSyhg5bhI02QaONqMWYKMAoCTZH2JLS5JjMYEqPkzEyaiKSNq7zOMghlzUdf/D2H+JX3nAl9W4PzQCjnngKts4zx9MmoMJ1CDozbLEDfvNt13HNVIFUXQaP30erniClIlABSF0FtZUeZ32VxHGF289qxHuNkyFexxDWUUkdUW9ALYZ6jbAW4LzBOYuII1QS41yJTQf4fIg8fC9vvnIbf/e/38bLr2hD1kXXJZ3uEE9t5cuts0p42gR0htxBIOvQCqEz4Hfe8lJ+ZFeDjXoPffNtXL+DzwYoZ6uAPqnw3mGtecrzcZwWRms+g8BLidUBMm6gWpOo9iQyrOFUgI7q1Osx2hS42b0Evf3sjHJ+6zVX8L/f+go24jCizzDM6AwzGq2NmOFTm09inX86T5uA6AVQa7OQ9Wi1Q6aHBf/1e57Pj15zBmdNHSYqepAuQp4SaIWKYhAKYyxmNaTNOhnSgDd4X2C8q5xldVDFU9VauLgNYR1jHf3FOfK5PUzLLq+7aBM//4ar+Kk3vpJw9jFMOkvP55iwQdCcZn4uo3GShD/rPHM8bQLKFcz0utSbLfJsSFwMmc4NP/eaq/jR55/Lxds3sCESqHKAKAu0GNl6vUeqp+1tPgkKEEXlPCMsToCTGiEjhIww9WmoT1VTVFty7pYGP/ySS/m/3vB83vGyc8DltLZvx5kImUYIo5DOsGE6pj/srXyxdVYJT1vPTGuO5kSDbNAjQqAadYJQoxdSfuK6q7n6orPZPtlC2xKTZ5SmrBw0pSSKnvoix08WWVVlRQlb+fuNMM5jnMepGkFjgmRqI2fv2slrX3QNb/neV/CSC7cSmjnmag1mrCapt2kHDZpFRDAYYotZ6q3Vb4V8rnLaBLQ8m8vK40opZC4JkIQyxCFBOZzIUaogBNpzD6NmHyOUDtWawPkICAh1hB4OIWiAjMFU7kKUDmFd5Rejj6TePWF7inEuwrkIazXGCJwBW1Y5xK0x6FDh8BTO4qOAaGKCejuqknoUjgyINWhZArMgD6JqAsINDNmw8uXWWSWcNgGtdFVZ7g4DEEtP1usTxxoVSHrdHqWKSJM27//Hb3L91+7g3oceozM3jxh2gRwUCOnJXOVMJmSVcisMQgJdZZLB+yq2aJVjUoPTNaL2JhZszD/e/BB//LFb+cLuPt3aRraTUi/7FHlO7hMGvkUnq9aAq3/8fe5y2gQ09jhYydgFKNSWeiPAD3v4Midpb2BPCu/61K387idv4oFDKb1cIqwlzDrERYeQDPAUEihKsAUIh1BUwXlSVmmqTqGE4zOPwKcZQyNJg0key2t86oEF/vTr+3jvHUDRQ0qHDCIKWcdHNZJ6jVgrlFmfwq1WTpuAjjd9G4vHWgs2BV9WxZ7iNovA+z59M3/08S/zUCfA1jdRm9xCPdC47ix28QC66KKkI0hiyFN8nmOKHGMLrCuPxCUd57VXG81aAK6EdIBRAb69hdlgI198tMcffuEO/uqm/dzbjUllQKRBFxnhqHiZLVe9n8tzltMmoHGIw3LG4rHWkpaWzqAkjyfZYyS/8d7P8p5/uJFhbQNsOYtMBLggIM9KhnMzlIvzFL0OPh8SK42WoKQHLNa6KvGhH3es1S+g2A1pRQIdeuywQ9pfoHSWrgw4WAj+7Q0dfuers9w8A1lZEJWL0D0ARYqMnlxi93WeOk6bgFaOQMesiZIWojnJt2cd//nPP8f7vngX83KCqL0BhMOLFKQfJVGv0mKYYU46M0M6f5CaFsRKEiqB1OJILibvV2ReX52kgyHeGqQroRwAJWEtJE4CSgzz4Tm8/9b9/NbHvsEND8yRNTdCewNE8VLB5XVWH6ft0hwvWlWIqnpzEAT0neSeWcvvfuh6/vaL95JNnEOy5RyG/R4MZpEyI1AWEYSIepuoNgmFh/lZzOwMJsuwZVa5wgiPUAq0QgqNWhbzv1rp24ieVRS+qo4d1RLCUOJ8iS8GyKkaOMEXdnf5w1vm+MADnvuKiL5QCLcGKuQ9RzltPW88VVsuoLEJW2vNo4cX+b33/BWf/sY9yF2XwORO0mGB1NAMHS5bICuGlGWBFwE6qFWpeAuL9oZhd5GsP6ge99WUcZwlaOXUcVUStCGeRNUnIEzIhyn9+VmKIqc22ULO3EZ7Swux7UK+/FDBf/7obXzgqwfZs5AhRXaMYFa2dZ4ZnnQ8kB8ZCjKlkMYTFx0EFoSib2JmbEzPwxt/5yMY58kLS2Y9pQUvwiqFsJAwrsczit7ELSvV7j0oCUlCVGsgogQrA4zQeCWROsCZYmTSrrLdjDO+e0a50fQqX0ckHjKHJiBQCpsv0rYDXnbmTl556Xn8+FkPgWpBuAmjwBjwBSRqCNqAbsGyG5nWeunGYoxBP8X1mU5GpzD8+BPGA63uabhf8f7cr3+HeeE4zrpm+TFZOkKbVxXvZQDJBL4Z8/X79vBff/+vGaaOLHNYJ5EiQKmgKkEIxyTlWbmeAipzdW4oBkPywRBvquwzWopKfLISYlUrVCCVrpqOEXr176QERYAyEdLHWJlQyDozRvHlPQf4q2/cyfvutdxtpsk0aGcIiw5JLcfHMYeHVZJLRkXNgmC0RzbimRbPs5nvSECcQEQAiSghT3FeYOMWBy18/Nsz/M2Nd/DFBw8xHEqKMsS4CEGElhFSyMqA5sclIY4gxok9Ri10ArIS3x3ie31smiJcgbIG5S3CS4RQeKlwSmOlwkqFFxqh1oA3Zi5QRmGtoiCE2gS0t3CYGl8/POA3v1nwh9+Y5ZuHS1AWmeRQdhi6kqDVxhizZNY/7g1onaeE70hAK70LxscAGPZQ9Rq62WZ3F/7ic3fz+x+9nq8+vojcfiFOxDhfWde8UDghRtpYUb5gGctFpC0o56q5S5bjh0PMoI8rhgiTIaxBuFGaXeeqUcl6vK3iilY7jgKvCpzPIB9WB+ttdHMDOmyzZ77Gh285wJ9//m4+c/8CA9uEsEkiBTWq6hNegHGWwpQYZ5cyaJVLNWvWOd18RwLiOHc3McrSkxmHVxGzHj785bv4wPW3cv+8JU8m6JcCHcWjEG2N9WJpaSOohLT8fOP/l8Q6OqaUQmoJ3kE6wPU7mH4PkaVIa6rKC8JVJm5B9XfOVVnyVzm2ViBii1TVyMJgAXqLhP0B8aAgaSSUPuFzDwz5X5/ZzXtu6bLXJghCgs4hlA5ASIxzlNbiRqtAB5gViTDXOX18xwJaydKUbmoT9yxY/uDDN/OBG27h4Y5D1KeQKoY0RYYKNDgJFoP1dqnshxRHz9FXjnBCCErtEYFERwEEIxFlGX7Yp+x3EPkA5XIC4RBaVA6mo6riag1EtGJzCl8QKIvUDnxejURpDnlB03aQ0rEQtPlGt8affesQf/DZR7h1fxfZ3rh0miXn3WVroHGy/HVOP6csoLG1bXnCwOXHHi7h/Z/5Ou/57Fd5aMGiJrZiCXD5kLimKH2GoWow8qIGQOL9sR18+QhUCUhQSDASZKAqEUmgyHHdHuWgg836YHIUFqQD6dHSswZWQFBUXubeSnQYQhxDEJDGmrJVY9H0GNgUGjFuaor7+ynvvelu3nXTo3xmXtLtdylsiZQKpTXWO9z4FrUWbiBrlFMW0HLxLG/jY7/1Z5/khjvuo6dqqKnN6NoEWmtCPGGRYkyKtQXeGxzV1A1GngTHMUosRwgBSuClx+FAecIwJAhUtdbJUhj0sGkfZ1JwJcI5wKO8R62W9KdPgFJTSJdgSom1o4riUuC1YphEFGEMzQhUgS/nIBYUkxv5x0cXeeeffY75hQWytCr2LBBYa8mLnNKWK19qndPIkoCyso8lx2PwuKPSOJcGpFCkRZVBU4sMmxfkSvGV2ZCf+sDX+etbFrlzMIma3EGjFqPKRbADvJYUcX1UB23cqrm5R+BE1cbp2O24sJcAKwVWyaqGpxdIX/2PAVtYnJVonaAbE5Bb6GXYmQ5utovsZ+AMufL0taFGjYaPSXxAaH2VhdCO9oikPCaX9dPdnEvxyuE0OFsiMoMoPcJaRDGsvpTUIoYlIpfIIqbMayyUExxym7nsj+7gf98pmDGgB11qC3toKIdSAYe6kp7tk+LoAnM5dH0VVmVxDNPFpVnFU4VWGqyjzArqSY1ymBEICc4TiKre1GpuJ2JJQFFQQxLgERSloTQl3oMxjqLIcIVBiwKkxKiErgm483HD579xDzfccj80GwRxBEpinCU3JZkpya2hGG2SPlmWz/TGBbqWjo1ig3xpcNkQmw4hLxHWIQQUNid3BcaVGEZ6RY6sfEfOu1aJtpzHR268k//51zdzyyGP3XhOVcY+S9keOOrKE1JSB9oRJGJUJtZ5aknjGOPQcp6oAz3XWTaFk9V6xFVFsLTWCOHQGoJQoBjifUGOYIDijgMD3vOJG/nrz9/KbFYniiK01njvKcuS0hi8tSednn3HSLG077pcRIHS1WsVBQxzGA4hHaCKjKh0GJdRYijF2GFVVpMdD+pZYKTKjebRecvf3TXPH3xlL598uOCA0+hYI+UiEo/PBrhhB+0dgQfpLM6CpzLiHE9EJ7sDP9dZEtA4qFNKCHRA1U3dqDyvASxRvUnXh3z+rv184HPf5FM3P8ShrkRuvwBjHaWxlMZinccjQGmk1ih1Cjvhy/Z8jte8rBocK6Kx4AOlqr93JZQF5BkyTZHDfpU1R47Cv5Vc8oLwrkoEv+bJusSbtpNPns1H7u/zG5+4jfd/Yz8PdgDVAAKcgyJNIR2CMwRKEWpVVbM7DqcyhXmusySglTcf6yzWWUpbBa4VukafgK/ef5B3ffLLfOJb9zOsbSQ842ycqOp5GutwDoRQKKlRUiNQx7WyfceMbQ7jujdjcVUZgfEapNboQFfRqoAsC/ywj+11iLCEwhAKMXIjGonaObxZ/ZlPT8ZUzRO4IUYGFK3N3L0o+cMv3su7vvwIX5sJmTcJrjZFfXIzSDVa/1XKKcwTi+V4I9M6FcdY4byH0pQ4B0oGBComDussqIi//drD/P5Hv8w3H+9RtLYTtCexMod0ZrTnIqrOPBotnADrLeYUdsJXmq1XtuVrFS/FkbXP6DErwCmP0IIgUAQKlDP4IqUc9lDpAJ3naOOQtgq1QEikEIgTeEKsJbT35MMeedFB12KYmmamrPPRexb4P194hBse6bE7h54UECXYsqTMB5TWIfSRcJSVIlr6/tc5LksCMjajKDPyYoj3nkAHgMRaQbcz4JPf6PDev7+Fb903i586m2jjGfTLDJvOAZ3K7OqrPR1nK+9V7wV4OXaMfvKcSERA6Qyltzg8TjgEDukdwhqkMdjFRVy3hx2mYCzSSbQMCLQmfhY4Wx7OFDasEygww8NAipqeYpY6/3j3If7maw/xiZtnuH8BuoANIox1GFsg5fEFdNQNbJ3jcmQEEhbrCpwzlX8akOeWxx7by+133M0ffeDveWgmJ9pxMb6+gf7cIt4Z2q0AfHfUsf2oaNbIy0CIKgfC6eygy0QkxDIRVSalkZfDeBPRIrxDCU+x2KHo9THDDF+6aoo3iinSUbD8FdYm4UasbuGFRNsUskVs1scrTTixkc/e/iCf/Mq3uf5bD7BvvkCFIVEtBhzOHx2wt86psySgw6KOiRKSpEso9iK688hA8YFbM374vbdxfzRBPrERV+T4xQOo0CCloD/QBHLXUoFdqGqFVj5o9kg5eyefsFV7TyduVdyQGC2GqlbtJVVroDhuVRtWtkSInDJbwGhNMLmJPJigXgO3uIdWuocrJixXTEimZMkwL+n2ffUaEoQSlWGhKPC5wXtFsApiicafeowXYJc1aeaRtosVDqcSJA2k1VhbkjHEX3gpt3bhNz53P7/+yUf4+wdhwUckqqTWe5DCRAQ6REuNLPtQLuJJGeLY/xRVx1g+sq0sgbnq2lE97whLAtoB+G6XXt+B2kI3nuK/vueL/NlnPkN41pnLnlKxau5Uoionnw2GyKhOVJvE6yYkU8RBjM+H0J2hX0wzOdHm37zqXD7zziv5k++b5rpwL77fg8kLCYKIQMdVLJMMIKwR1GqEWlGW2cpXXXOUh4ZMnHEBcttZfPKOu/i1j3yKj96zQEe3oXERTTWHzxcxNsVGLcpggmEWEhjYJp68M9Tx+sv42PEeWyscmcJlJUkuSBo7uadT53c+dSt/+qVb6E5uYiat7kDej+p5jlj6ApYde8rw4xGOI/cAIZCjn+Uo9ifPPM6EqKCFyQv8wkEm5IDLLtrGf33Hm/jlf/Z8atkDXKz38u//2fP56VdcAofvxRUFJs9wpQMRIFSIQ1CaAl9ULjJrmTOmdrB4uEOeGTj/Eh4WLf7jBz/Pb3zwHh4aAvEQoVIyV1KOvEFqkSJwEoon9lJ4oseOy7NoqnhEQKZHODXFQ334k3+4g9/71DfoRFNs2nkR9Ko58pgT/fyk8OKJ29LfjYZRIVBUC1wlJIFSBDIAF4CV2EFGMXOAnQ3Hv3jFVXzgbZfxg5e2q3OZjZThDs7ZPs1bL4r4T1cVbAs8STGAdIhEIFDYPMfnGWGwfNBem8wOZiEJoTVRhX8HU3TEJB++7yA//77bufkRz4yfIohaREDsLMJVPcTm1fV/su4+x1tjrfx9rbEkoJ62POrgf/7tN/nzz9/GoL6Z+vQ29tz1IM3pXXAc4SyNQKflS1g5y1zR/BHxQLUnKqlGICEEeVEQaV119qxPy3V53q42b3nF1fzcD7+Ic9s9kvQwvRx6jUmGzTaDFC6ecPzyq8/mh645l8unYmrpIiLtVQ6oQoFShOFpNII8Q2TFYZKGpGlKeGgPzKVs2XYug6mNfOnxR/hPn5zl724vmS9B+ByKWTCzlLqg3wqPstCt7AenwsrnnP7+88ywJKCZeps///y3+dg378MGLUSjRa1Zh26XqDj6w678Mp4uxuJRI+Ew+gASkFGAKQa4zn4m7Qzffclm/u2PvI63veEazohgcQC6NUUt1sQOVOqYTCBOahRE/Ph1Dd5w0TTnNh1x0cOXQ4SWoBVpefJ9rFXPhknSxVmGhw4zqUM2hwmDTpduaeDMM7lhj+ZPb3iEP/vcbu45lEHcgijGIitjzbJOv1IAz2WWBLRnYPmbT38Zn2wk2rIT15+llD2iHdPMdmePftZTIpwlKRy3LR95lj+D0XQOLSmzDmdPBfzwiy7mx159Jd99+UY2hSl+uBfZ2kTfC7zLCUROI7Ko0U68C+qcIxzff/kWfvC7LuWCLZPoURiA0hF2lWeMOSU6liRsU5ucIo8DFpQjl7Jy4Rh42BBx3+Iif3bzQ/ze1w/wD/s0h2kg0DTt4Jh9ou/0Jno84a38fS2yJKBHd8+wd88CtWSCoiggkSz2DpPns+ipqkbnMR/0GRqChR9ZtEfikYAbDogjxWtfcg2/8OMv5cUXbsR29uH7hwkSSeC7hKIEGWFERC+3lKZE+ZyWHsDCbs6dCvnBV2zjmkvOIQkqp9ogiVG1tV+jdMI2KYfQczCcaFC0ahTeQeZouJhabQG9uc4h1eIv7pjjdz/7INff2aMcFOhlrk4rr/XK30+Vf+rzVhtqYmLi1wH2bP1RHltcIJ4WVWXorqAZbiUfZjjVB58AYmQMq9xgELI6tnK98k9pvjwy4Iz3kKSoigxrhcWhwgAvBNYaQBIGURVP1xvy+vpefv2tr+VtLz+HtrH4rE/SmIRoikFRIxYh0qullwi1RgiJ8xLvNbI2jTXQFnD1tpAz6wWH9zzM44e7uHAKRIO6GFJ3cxQux4kWyCaBz9mc7Wegmys/0VHtqe4u/iQtlwavPQKHKAtEWVbvTQpKHKoxRWE1hAk+jtk33+Puhw8xl03S3DzBxpom0Apcgc0GBIFESCi9wEiFGmWiPeo9jUQihKDr4Yt3W3ZbUIklGSY4HZAGGVEZ4cXpcld5qljx2b70blguoH3TV2G0JPOWPC3xBrRS+EjhlAf75PcCnhBbmXyEqFrlLS1w1mKLklZkyWbm8SIh2XouXgRku+9hg1jgdZdv5Sd/4DVcdfEZ1FTlph/q6hyl8WR5QTQaURhd0DHjn70xCJuitKAWCDZvnaBWn2TY63Joz25Mq0GZZ2AViWrhRIgrMhwlRT3CuSc2NDzVAjoZR1/+Y5HDAmEdoU5I4hrSWfr9RQ7Oz3DXng7P3zEBQhEGAVGkQUBRlKSFR4YafRwBjRFCMHSez9xneNQ44rBE5TFWa6xM0S6ophWrmpMIaGbzVdQn22SFrcJB0UjvaDRqZEVeRZIesz17+ppGV9GmnpGIFH7ZBQndgDJuQTiB6We4hcOctUHwky87j1/43qu48MyN1BQo66FMUYHGeSiNI0xiJNUFPp54AJR0CEoouggMDa3ZublBQ0I8mOXO3hBUDeOaFKknMTlJDHmgsaby/n4inunucbL31zCgLUjjoHCUzpJ6w6wZ8tCgw8w9DzO19Uy2btCY3OHzlChJiMKQogQt3FHf73htMz72rBfQ2a99C4cWO5Q+QtXbeG8IcARKUOYWL5/azC4NneCcxxgLnko8QoDUyCjCoqnFTcq0A/OPcsX2mHd+3wv40ddeyeYauEIQCBA2R0sPUlEaCzpCq2qdxEg0xxWSUggt8dZSDLtI76kHITunWlywbYp98zmDQtJPBYQBUc2ifUZqNYhJYHV7K5xMQErLKvKrcORZjvcCmdTw9ToEEXsPCh7Y12G+Z9i6aYpN7RhZZNi0TxxqrDv2BrWcoedZKaAlI8IbvusihvsfhaykUWsDHh1K0jRF+WBZlrGnplkc3jukFCg9SkVlKt82bwyGCfqHD7OjPMjPXLeZ3/qRa3jrdWdRA+b6vqpwICwy0BBEICRhGKKP+J4ec4GX/971koIIkkmiqe3IuAEe2qHk8p0b+PVXP59XbmlCOIQpiW0rFvIuDHLayZG0UmuVAQVpAC7RqCionGx9UJVX70Nv27V8cybgD79wH392/b3cOeNJZYwWDnwfv2yj9dlgXTtVlgT04nNbbFY5Os+xaQ62WnRmxqLC+tHPegrI7BAjSlQIcawJFWBySAf4bACze7loU8LbX3U5v/i9z+O689vEvs+wMORBjbhWq+4SQpHn5cjIoVBKYApzwjsjIyGFopJyicQQ4GWM8xJnqxHxsg3wY991Jm++bIq2Pcxw4TAirNNIEpjfe0zHWdlWPVKCAiMdpXKUGKwtUFYCCWRD5BlnMl/byp/d+AD//SM3cePjQwa1aZD1JfE810S0NIX7v3/h7SzMG2aGITPDKs2sCBzWK1QwgXWDlc89rXjpgWoE0kribIktCkKtmWw0eMmWkh99zdX8yGsuZmurhu338RbCuE6gQTiJkIo8N5ReEgajRb33aAWMPBZWMj4WCIFmnKzHY53Ay3FKNYv3Q86YijlzIqSc6zOzoPDhFEZBv7sH4pPcZI7z2k8nJ3v1WNexpa3C4bFVCjEJWitqcYIxM7hyCCrA1jdwcOC468HHWMw8W86apmnKo0b0sXDGx571U7hNseeNr30pZ27aiBumiEBRuBK0pjzyZ08ZMlLVHRBDUeaYsiCUgul2izO2buE/v/m7+P6rz6AmIEeThtMUQRNvCmTaIzMOA+goIElCHFAUhrKoChWflKIPtiSSjkgLpIJAilHRB89iMEC5QzxvSvFLL76SN15yLXYoSfvzqB2rv/rDyahnjrig6hL1GBoxKEeZ9+n35pgcPswG3SNuJBBP0fGT3DKn+fAt+/jdjz/0nBhtjsfSCPTOd7yDMzY2OXtrhBseZN/jj5ObEBG3cbLyhNZhhMsyMCVRrVHt0BcCGhvBPPEIFYViFB8EgYxxIgI0RA1oTRMO78Nbiw5aSB9TzsywoVzgR6/byf/vX17N+RvqxHKUKNF7AiXQUiCEROkQPUpUKgE12lzVSi7ljD7e6DOmMiKEVa4AIao4wKW1kwAUOQ3yoSYKCiZbhl3bMiK5wN5ezuK8JNnQwuQDGA6InCMOQrwOcTqAIELa0b7L+DWpRsfVQioMRo3eT+mgsFWglaz8AU00zdBKymEXYRcIZIaOBDNWcPOBRXqH6/RpsHWTpqGHSDlPWS4w0JpUxPTLnM88JnnEWGJf0khreC8YRH1o1FCFH30rq7UdzTFWuJ/9yXcgg5jWZJ321GayzPDYngNkg4yg2cbNHSKoxTTqtSpjjzMo73EYyAcnTR9r0wwfJIQ6xNsSLRxJALbo4g/uxjanUWEb0+lgD+/j6nM288s/8jre9JILabuUaDwlOwFjgaw0FJwuUixa55i8h7cl7doU55y1mdAkzOx+iAOzZVUtoTmNkSF5keNsiZKOUJpx/bA1ixKiGmXwVZJLATAqgoZgZuYgBxZnGJQ57VadiaRJqBNCIwidR4Yxn33QshdPK/bILCDDk4k+opDop2GWczo5RkA/94v/hrIsqWnFtqmYDVMbyIuSA3Md+nMLtM84g0GvRz5MCYIQ7xyuHBJKR6KgWKr6ewJEAFKhdYASApOl5N05ElImWgnDYANuOKApcl5x0TZ+4rXP443XbmVDkBO7Pv4Uo0KfKgFZesQCwkCTDzJqQUhLBlw4Wee8muQLByzeCjIHTkVV1h9bEhcDWnbIUJ7a+1+9iCpfrQeBx4tKSN5XZTYWdcCeTpfdhw7TTS0TExvY1EjQXiN7PXKp+dgti+zOC6LEYlKNDTUqtISZQqg1LqCfeec7q3zsxZBQerZN1di+fQfGeB7ftxeRTJJ2uiBDCBLKLMdZTxzHSCwF1WbiiVooBFpInFcUHjwSoTVRGCGlJp2fY3PN8QPXns/Pv/ElvOy8NmHWh2EPEccgoyVxPFFj2Wh0OgkxSCSCiDBqUOYGX5Q0Y8H5Z0wia1vJF+d49OB+UBG0p0EoRJYhC0Ox1kvVH2X+lwgPDldtfiOgNonVNeZ6hkf2zjIz2yeJGmxpJ0S1iBLJx7/d41FTECYGU8TIeo04tNQGknKNpaU4RkBv+6l3koQSoUoohiitmGwEtNrTbGw3+OK37gIZUJ/ciFEJLjUQxtggIOv1UUF4jGiWN5kuEuiQUoiqIF3coDExRVoYhvsOccXUkB9+0eX86Gufz0VTiogcKQREDTzJKRmxnqrRBwAj8UMwLsIHGh+E+EBh7RAdOC7dHlMXjnSYMpeXZAYgxKkAIyIYry/WLCP/R6imblDVsUVUC8/5AqESdNSmP7Tc99jj7N7/OC5UTJ6xgZoWfGVPk4NeoIMCZ0JEEoFLCRahTJ6i6/YUcYyAfu4X31mlfy3TKjGH9wgZ0EoCzt4+TVrA4twBDh04BEkTObGhSr6RpRDqqrM/Aa1A0uunOCS61cZlA4rHH6IZwguuupj/8PqLed3VF7KzHSDtgDLL0VGdUiiMrMzMK0eble0pxUhEoBFCUPpRti4hESogxdHMu5y1ZZKNU23684vs33+AvDQQJXgdVm5CaxkxuhWOv+dlRbuEkNQJKPoDnFe0pzZhhWTPgX08NDvDvtRSqzX45v6QeRfhi0WwCSYMMEWHWhZSxk/x9TvNHCOgn33nO8mKlCwv8DpERxHgCClo6ZJrLtuF7w94bO8+UuupNZrkpoB8SFSL8KZKFXWiVotbDDIDUpHEIAeHaJSH+eGrd/Erb30p1+2aphErpHCUpgSpEDJACoFabm9/hrAjg5RQUGRDyjQljkIkEkWAGewjqSecMdWiHdQgy+jlQ3oUOF3VcF3bjIo4j3/1vspsOirqPN2M6Q97lYU2SYgbdXInWOik3LVnjkHvAA93z6TUCpEuoHyNMpRkeYcp3SZfYwnKjxHQj7/9XxHGEUFUR+oEJzwKh6ZEu4xmoLnikrMIalPc8cBDzM4uUGvXCUJB1ltAqmjlaxxFP9Mk7UmssBSHH+esNvzM66/mp157Bee1SwYdi1IBQglKFF54QiWQ3iHLAk4lv/YJ8E/gKXyq9IXFYQgoCAJHFEikE0inKPuGoK2xxhGJhLM2xUxv2MbBziKPd2fJtUO4Nb4GGo0+YmxtHdfoBIRU9PqHCGoRKE3W7ZINMuKkiY7blDkcmrubovZ8mhMBYZkRyBrDUJBl82yIJsnWQh3OZYwFJHbt2uUB7rzzzpV/cxRlukDSnMDYgI984Wb+8vpb+NZhT6e2HeqbwRxCSk9gM1xZZbGRQYLRSZW4vnUezD1CM9/Ly85u8COvuJxXXnMJifCUJiVw1Spy5bRs3PGfrACeauZSSy0xhK6PKgqIptg9jPiTr+zm3Z//OvnUWShbJ3QxYWiwYp6hyzB+CuRWEAfBC4R1KCRSShwCI3yVCOUp36k/2flHWZGEOBIVPHLdkR7wpoobFg7hfJVc01WVw4XzOK0569wLQYVYUZWgNMYQhRqT54jTmXzzKUCMzPhj/P/7Alg+M1rZaVe2pDnBcDAky3Je/pKr+Vdv/mc87/xthMUspPvABzgbkcsWZbyFMt5CLprYQoNVcM/XOasu+FevehE/8f3fw4svu4SWEMgyx/TTY15vZVvt1AKFRmOdonAanGCqDi++9Ex+/HXfhevMEkoQUcJC7ulmHq1jWqGgZo4NmV+LPBe9EY54Irzzncd02uXNC9A6IooCggC2bm2wecM2hB3SPbSb1NexxoGso5NpVNDAW9C+pKbh2g2O73neObzxRZfwgrMTWkogbIl0njhMQFXeAlJW/68V4YwJAISsknB4TSBiAgmbWoLzdk7QNwlpN2P/3ACiFtQamDzHpz3a2jGQGhAI75cyDVUV/BhNn1a+4jOEWCrOCePpMQDVGhhRlez0vvKuXzokJZNTG0Aq/MgzxDk38nu0iGVFkVcjx/TFL/0pfCcC6qY5cViZqvudHnEQsXNTxFnbNhNk83QPLeK786SLC9hBDwaLNLIFdkUlF0+F/MpbXswLLtzMmZOKxBZQDqrkvGEIKjjqtcYiWlMYB1JgpULpoDJ8eEiEYVIWXHXeNHlnwGMHZ+gSImpT4DXWGDSeXD97BFTNNisjg/ejGrhKPSsFtLQGuvfee4/+gxUUo/meyTKENUS1BCsUOTDTWWTmkOfBvYd54MAi3UKgtGZTK+SSnZu4cNcmtk2BwoFNwRZIKZE6xhCQOU/jKQ7Ye8opDFZrSln19chRxTOZLk6kyKjN7h586Nuz/M0tM9zXS9DNLUhlKLqHIbJreg3kXVm9xWVrIHxVgFo4jw+CZ+Ua6JQFVFLdZfXSfpqjLAvQAik1yirSzLAwKCh8lX8g0TDViNDKM/BDQq0IAOtLPBJEhCWgwFOl5FjDWIdXknx0owndyFIlUxA5dAbQnuSwr/PBmw/xwa8d4rZDHhPVoB6CW3jWCcg7U/nKOQ9h+KwU0CmPmybP0FqOfJYk1jp0GKCkorQleZkRxYJtm2LO3BSwa6Nm05RGyJI0HyKMRzoJXuFKRZl7vPUoIDqOeJYHZK2JhamoEhAKlgXaComXCUPRgnA7WMcm2eVfXbuZn3zRLq6dgqBYALe6w8FPhZXXak1cs9PAkoBWdtiVLYn00pCMAKVDnFcYJFqFpLpGrgIcAmcyvM2r5Ow6pIgaxLqBIgKrkVYT+pDAK7Qb3a2PcxGWH1vtjFI5VGmjfIEtcxCQI1lAs6glvVJDsUibBb7n0gl+7LVXct05m6CzZ+Xp1lkjnPIU7mQY88Tpb8ciGBsJ5CpfNJ5uBoVD2BLKlDAMUHGdxRK+cvtuvnbLXfzO7YKpnRdRiJh+0Ue2HJIhptNDOI2PWtWJjh2soZo5PcVUL+BHRgPhRtdzdG9zvprCeWy17+PMqOhZZVQQcY3tZ5xF3GiSlq6qoaslpsjBWaR+4o34Z5rx5x3jfuNq+E6mcCdjpdXuidpzEaVG1fC0Al9ZrGoBPP+Ss3jDq17Ci1+4i7L/CEUxR73dwC0OMD3DxskzaAVthFzmBeCXtXWeUU6bgMajyqm056KItIIgUIRJrVqQlhkhMJ3AZWdP8NPffyn//EVnUS8PMdj7ADKpk9Q30F20uDwhQKK9QDkQ1i81aWGNuZE9qzhtAlo5yqxsy8XzXBQQ40mQEKggAFvg8iGiKNBZxmsnBD/7snP5/ku30WRAYIc4PLmx9AjRQi6FqkuovOW9X/p9nWeG9e/+acKYqrMDlad5lKDCgFBDoj3NfJ7zbcEvfPcl/Pz3vYR6uo/84H2oqRiawVFryOWtMrIsf6V1nk7WBfQ0EekqMX8VRlPlr6uaRGoN3ZRYwIVN+MHntfnxl57PzimHXdgNvkPpLMY5HKOCfVLgRVVo2a4r6BljXUBPEwJXJeIQEoei9JKi9GSFZ5g7aG6AOERkju2y4KdfdSHvePklnBeXtIaLGO8weKwEr2TVtMArgX/KN1nXORGnTUAr941Wtuc8psQ7gxiVfBUCnFRVeRAknThiocghKGhGBZtsh9ddtIu3vviF7OBI/I2nWkdVvmPPzbXkauK0CWjl3Hxle86jI4TUCEBVGfGIFTRjTSsJaFMymUhK78hLRajaXNjQvO0Cz5++aYJNCwlN3QCd4tx+ErFIK+9DnkG7TSQkkZBLGVbHF3bljezEzT5hw49SWI3+3lE1Kzx2tEf0RBz7eqPzuPH/VQW8Z6qdjFJpTBhTBhFZ5XsPp1NA6zxJXDWyBGFMEEQIUaWrbrVabN2+ld/+6Qu5wO2Hw3PU2+czFFvp+BpJFKNn92KMxRiLtW7UKavTrt/ATo2Vwl7ZlElRxQBlUrTPl563LqDVgvdLl0NKiR8pIIoU01Ntvu98+NXXXcj3bduMfXQelypIJilMyYQpsdZibeVqNb7oY9b18+RRziBtgbIFWhxJELMuoNWC1FWqn1HyEeccxhrcKChtmN/P667YyL959ZW8ZMLB4ACYBawKCCZ2POE+2/oS9MnjdYSVGodCLAu9WRfQamFF1h6lqpAQYwxZMcRGW+hnc1x7nuQ3/+Xz+L5zDRSPQQAHSNC6qiWrlETKIyJaORqtc3xWTtlWtjJskomI3Anssmu1LqBVhDUOZ490diUFQniE8AxoM/QCfIdLzij4hdeeww9ftoW6WYTZx48afap21KnXeZKUsgo6xltq4kgGoXUBrSKq2rBHer6nEo/WGjE3pF2boitKDs/t44U7tvCLL3k+b9rVZFe7N1oDVQaEdSPCd87KEWdlc2WJtkPaKmNn7chNbl1AqwhZOSaMcBRFhjHV3tH2oIbLCkzYQE9touzlXDkpeeerruIHL50aWeCONiSMWdfPk0eaAZFLmQwcO5rrU7jVhxztiy51dkkc1kmiBgERruGIQs2EC2n7BJ0oCl9wbjvjV199Kf/zxWdxVa2D7z9KYzqg4VPqi3PUCosO6mD6YDMEJUr6qvBy5RoxiqAVT9iEcUjrl9rYGxzjwHqEAW88GHCm+h0jYRQWhHVV2LsdhXh7D86jfJU2XDj/jLaGhbAEV2hKk+B0HZ9EZGFGxx6iOe+Q28/g6w/P8Jar20ddtnXWAMvDQZRSo9iiI+27r2ryz689jyvPPIfugweR0zsRm7cy6MzQ8ilSJmgVoUVQORZZcM5XQUXrvYBFhuQyQ+uChs5p+IyGKWm7kCnVxramOPDoPs6dEkwuqySx/tWtYZaL6pypWX70uu289ZIL2bVhC52ZWXqL8+y86jJm9zyKIlpq0qnKWGErD4NqJHpuYxINkUCrFO16yKyLHwzxGSibMEhADg/yxqs2srN25HnrAlqjeO+X1jvOOUr6TIuMf3VpyP944yVw8DYmz93A4/fezeSOS6AEaUF4gfBVfZ/xVMqtO6MS6QaCAO+rfHWld6RCkKqQYdSg0+9w7Y4mb7x8M3XWPRHWHGOhLLcMMRISwByToBTtCF7Wzvj6H/wow7s+SzAxQa6nwJRYU4Irq8QnYuTRKoBlpvPnKqovIdV4m+DjFr7ZJq/FpKEgDR1nhLP8yAvO59y6xJXdpeetC2iNsNLTYPl6SEqJYoq08KBT2tM5Z/QP8f5f/nHOVSmqd4AoNASywLsC50qEtJWzHWoUYPTcJswd0lRpyFxQIwdM3kGn+2nme/mx503w+p2gM8NCesT5dF1Aa5jlQmp4UHFIXxmIFbrMeNXWBr/zYy/hmvgg7ZYiih1SpHiXgXdIOUqjuh4WQRBkyLDEKENmc0TWZ4vt8uIpy1vPjnnr+YqNDmwe4lubl563LqA1zngKlwz7eKAfNLlnaGhM76Bm4KIA/tvbXk6rGVCLBQKDtXmVdgoqH7z1boBRPYxMycgpy5zEZVw8GfNDl+ziF1+4iW3lXhgMcZ6jKhkt5YW7++67qzvSOmue5euj8c93Hir426/dxV/fsZ/DcgO0t4F1qHSRpsnI6lNkwx4UOUQBIo6q4D3vq93dspq2SD86/yiOpyrG4JHY6rio9nrEOI5olE9NxjW2bT+TqNEkLf3IFK/wZYHwDieeXGrfuh9QiIhMRAyRWAdSGGrKEio4rBrElDRsRuJytHUUVpP5iMIHHPSClky5MBlw3YaSF2+NuHJLwvamBukxVNmUxl4dl1xyCSwX0E033US7fWSDaJ21y/EElCvFrXtKPnbro3zmvhke6UkIamgkFAUuECilUCNH48IYbFlU7hGBrvaLVrGA8L7yklYSJAgMyhsUBQLLfOqoixo1V6fMPD2T0w0L8ilwbc1LB312TsVcubXFFVsjzq5DWzqUKXBlgYqOCKjX6/HCF74Qlo/d+/btW/521nmWERm4dkfAO15yHj968Rlc5nvIgwcoC0mw6WxsZhAGpFXYAlzukT4kICQ0q79yRi4alE7jyxKd94mKHrIcUBYpaVZwmRU0reCAkjw4EXNoS5vahgaXK8OrerP80mWSn7005AfP0zy/DRu0QUmHCSNcfZQVdsRyrSwJ6Mmm9l1ndZNli4RlyQUt+OHn7+SHnncWF0yFUA4Y5iVxM0aEitRaitLgdUBYqxEEGmtXf4VxLSTSWTAGVxqsk5SyRhZsYBBv4lEbsFDX2AmDDA4xkT/Id8lD/Mq5m/nQq8/jNWe3uGKDZoNMCV0Hl3bI0wHgjkkAu1wrSwK6+eablw6u8+wjbiQYO8AOZtg5ZfnnrzqXt7z++ezcrGH3LXjpcBpIQmjUIInIlGcoDHZZBOZqRbs+oXKEoULXGth4gjyYJFUNUlnj4SRgz8weph+9lZ8NDvGhl27nvW86k9dfISkiMD4Eq8GH4AKk0gQSRJkibVXzd8xyrSytgRqNBt/4xjfWDQnPAo63BrJKEFJCPgShyMMWj3j44Nfm+bsbv8XDhz2ENURjAhEllZUuT0EU6FBhymoat1rXQNIXCKXxKsR5SVlaitxgjcU5w6b+LK+4ZBv//No2V2+GGl0KMyRF43QNbWrgQHiLxqGkI6gKH4FwGB8jRoksr7vuOvr9Piwv8VgUBdu2bePiiy9e+d7WeRZQpBAGAWgJ0iGFoC4UO9oJV22Z5O794ApDNswQqMpLweZASawFpasEtLRjNJrXjH8XSwcq96Dq91FRLkDogGZrAh1GVTXM0f4VziLw+CNxHP8kjHaUSmF8gC0tocnYrgdc2cx54QbD777uHF5zUcz2qcoM3WVIWhoiGdCWAUoGaFm9ZedBIhFCIZQCFM5XBoSPfexjfOYzn1l63SUBMVocveUtb1l6cJ1nD5FUYKnqkWqHwBIawwYtuWBjncXGZkw/4PDsLN4K6kmMFBafD/D5ABfUYRULqIgUloASRehhRw1evCPhzVds4Ief1yaaWECHhsBoGkZStwkN3UTqhAE5cZaipCdQklBVpVfwEms8rvSgKgH92q/9GnNzc0uve5SA5ubmaDQaXHnllUt/sM7a40hY9xFPBV/dSPFSYp3COoXxcpTXzfLiM4bUXcFCN+FgGdDVBSYqiMKYmpxm02AP+JJMSZAxOF2dX5Wo0OCNOiInP6obtJQ7QCCDgMnJDaggZJDmgKjqJAmBd5ZGMaSrLAOhCMsYKWsMkwjjBY3UYsMmxjscQ0QwxMsM6w06qNFo1hl0A1ppnyvUHD+00/Jz17b5wYsjzmrnRGWXSE4Q+hAlRJWYT4GQVbL+iBChY5BBtec1+hhCglQSGVTuUu9///v5xCc+sfQ9s3wNtJwPf/jD61O5Zxnji+xGlbNXRq1GxpAlNb74uOGPP3Mn19+/gK1tRtdrmKzDVNEhj2MGOhoFyjmkNTiXgs+QujU6n8M7h3CjNZGv9u11rcaOneegkxqdQY5SmjgOwZQ4U9KpaXZlEUopHo9L8jRj63xBpATzG0NseRhZBtRp0winsRJm85zDRRfDkDdPSy7esYkXnBNx3gQ0LYhiiFSOII7Q/ogpfrwZOv7/VLjnnnt405vetPLw0SPQmNtvv53Xv/71xHG88qF11jriiJGBZaOVcjE66LOjnbNxMoBhjX0HDcPMQDMgzRRlmIDSYHOEKQmFxIWa/6+9s+eN4ggD8DMzO/t1t3f2mbONTCBCJMLBcuWKKAUfRYrkDyQSikQVCTsVDX8lRagpkOitNMgdBRESpIgihWDjQIx9572P/ZpJsTY+W7YDoQlon2a1muK00jw37777zrwISflfzk7YVrZeeX0PKNclaoyhtEtWlHuQlJLYosCaglrYYssO2Rx0qPf7tJVENl2GjoXukDAdoMMJ+tEEqxbWNrcI0w0uTzt8OzvJtQuSizOaC2OKhsjxZBkaFk6AUQ76wDOPXv+NTqfD4uLivtBtl0MF2tjY4OHDh1y5cqWS6ANkV6DRUM8qSW/7JaGK+eTEBB9Ptel2Yv7YeMUwKYAAAq8Mf/IElWUoqRBaY7SLyHcrxA4XSGpNPWq+Fmi3ihxjEFiSrZh+zeLXXdpGQyFYU5K+X6OlW/T8Nn/1HTY7rwhVhy9Ow3dzNa6fc/lqKmPyhKAuE+j+jRjGIAXK85HKwQLOfxSo0+lw48YNHj16dHAIjhIIYG1tjfv37zM/P0+73T44XPEeY63dJ48QghcqI/THcYsmpEOmooQzH/mo3PL8t3U6VpaNWJXFEWVXPFMYsp1drfuEOXgPCMehXm8iHE1uynPvpBQIa3CUJGkaTsYWb2BYizTbYY1WGiL6Dr/Lgm7aY8JL+XoSls76fH+uzqVTHmPNgm2VkPYLBBLHC8H1yk+cpkylC2mRI2e5valAjx8/ZnFx8Uh5OE4gdlaiO3fuVImFD5RRgQYCXBQqEwy2urh+zGTT41S7TVvV+WX1KVnSpciGSB3guQHCSgwFVhmE2Z2MhwvkBgG1WgPpaHJj9743mvKAkxoZOYqe1QxTSzHIIRsQEDNOzJdjL/nms4jrC+NcPK2IdJ80TRnoBpkOMSikW8dxPITUZQ2fBSEMSgrsW74D3b59m6WlpUPDtlGOFWiXlZUVlpeX0Vpz/vz5Y3+44v1gdBIJIQhQiAKyLEWHHspvIghohJq5sw3iVJCnMc/jPoUM0G6TslI7w3cteX68QGEUUas1EMohK8oV0BgLpkA7kuTPF8TTLfRUg1bsIdaf4bjrXPpUc3PuJD/MTTLf1jjugG2ZkDkuyouoAWEC2pc4QlBkGbawSKVBKZAKYxl5RztaIGMMd+/e5datW9y7d2/f2FEcmoU7jnq9ztWrV1lYWGB2dpaZmRmiKKoqGP7n7E3nveoEdgVCIBJAxyBTchoU1iHpl5tWw2CTF4zz48/P+GnlV9aTCOFPYId9RL6J7xuSIjw2C9eanmZsfBK0Sy8pEEJirUFZQ+BpoqkmW097rL7qYRuKz8+Oc+2M5PLJnHajRzfVBG5YZqANiAJQOYhtMDHYaGeHrQvCARwKAdlO4wt/pIVJKa8hjmNWV1d58uQJDx48YHl5+XWFwZvy1gJVVFTsUS0bFRXvQCVQRcU78A8hRQVbl+/xqwAAAABJRU5ErkJggg==;" vertex="1" parent="1">
          <mxGeometry x="-120" y="330" width="54.17" height="50" as="geometry" />
        </mxCell>
        <mxCell id="SP_JeRSVCv52ay304UxJ-8" style="edgeStyle=orthogonalEdgeStyle;rounded=0;orthogonalLoop=1;jettySize=auto;html=1;" edge="1" parent="1" source="SP_JeRSVCv52ay304UxJ-5" target="SP_JeRSVCv52ay304UxJ-7">
          <mxGeometry relative="1" as="geometry">
            <Array as="points">
              <mxPoint x="60" y="190" />
            </Array>
          </mxGeometry>
        </mxCell>
        <mxCell id="SP_JeRSVCv52ay304UxJ-5" value="&lt;b&gt;Staging/Temp Area&lt;/b&gt;" style="ellipse;whiteSpace=wrap;html=1;fillColor=#f8cecc;strokeColor=#b85450;" vertex="1" parent="1">
          <mxGeometry y="200" width="120" height="80" as="geometry" />
        </mxCell>
        <mxCell id="SP_JeRSVCv52ay304UxJ-6" style="edgeStyle=orthogonalEdgeStyle;rounded=0;orthogonalLoop=1;jettySize=auto;html=1;entryX=0.03;entryY=0.592;entryDx=0;entryDy=0;entryPerimeter=0;" edge="1" parent="1" source="SP_JeRSVCv52ay304UxJ-4" target="SP_JeRSVCv52ay304UxJ-5">
          <mxGeometry relative="1" as="geometry">
            <Array as="points">
              <mxPoint x="-100" y="247" />
            </Array>
          </mxGeometry>
        </mxCell>
        <mxCell id="SP_JeRSVCv52ay304UxJ-9" style="edgeStyle=orthogonalEdgeStyle;rounded=0;orthogonalLoop=1;jettySize=auto;html=1;entryX=0;entryY=0.5;entryDx=0;entryDy=0;" edge="1" parent="1" source="SP_JeRSVCv52ay304UxJ-7" target="SP_JeRSVCv52ay304UxJ-1">
          <mxGeometry relative="1" as="geometry">
            <Array as="points">
              <mxPoint x="200" y="70" />
            </Array>
          </mxGeometry>
        </mxCell>
        <mxCell id="SP_JeRSVCv52ay304UxJ-7" value="&lt;b&gt;local repo&lt;/b&gt;" style="ellipse;whiteSpace=wrap;html=1;fillColor=#dae8fc;strokeColor=#6c8ebf;" vertex="1" parent="1">
          <mxGeometry x="150" y="150" width="120" height="80" as="geometry" />
        </mxCell>
        <mxCell id="SP_JeRSVCv52ay304UxJ-10" value="" style="sketch=0;aspect=fixed;pointerEvents=1;shadow=0;dashed=0;html=1;strokeColor=none;labelPosition=center;verticalLabelPosition=bottom;verticalAlign=top;align=center;fillColor=#00188D;shape=mxgraph.azure.laptop" vertex="1" parent="1">
          <mxGeometry x="530" y="330" width="216.67" height="130" as="geometry" />
        </mxCell>
        <mxCell id="SP_JeRSVCv52ay304UxJ-11" style="edgeStyle=orthogonalEdgeStyle;rounded=0;orthogonalLoop=1;jettySize=auto;html=1;entryX=0.532;entryY=0.029;entryDx=0;entryDy=0;entryPerimeter=0;" edge="1" parent="1" source="SP_JeRSVCv52ay304UxJ-1" target="SP_JeRSVCv52ay304UxJ-10">
          <mxGeometry relative="1" as="geometry" />
        </mxCell>
        <mxCell id="SP_JeRSVCv52ay304UxJ-12" value="&lt;b&gt;Clone&lt;/b&gt;" style="text;html=1;align=center;verticalAlign=middle;resizable=0;points=[];autosize=1;strokeColor=none;fillColor=none;" vertex="1" parent="1">
          <mxGeometry x="500" y="78" width="60" height="30" as="geometry" />
        </mxCell>
        <mxCell id="SP_JeRSVCv52ay304UxJ-13" value="&lt;b&gt;Distribured&lt;/b&gt;" style="text;html=1;align=center;verticalAlign=middle;resizable=0;points=[];autosize=1;strokeColor=none;fillColor=none;" vertex="1" parent="1">
          <mxGeometry x="295" y="-10" width="90" height="30" as="geometry" />
        </mxCell>
        <mxCell id="SP_JeRSVCv52ay304UxJ-16" style="edgeStyle=orthogonalEdgeStyle;rounded=0;orthogonalLoop=1;jettySize=auto;html=1;entryX=0;entryY=0.25;entryDx=0;entryDy=0;" edge="1" parent="1" source="SP_JeRSVCv52ay304UxJ-14" target="SP_JeRSVCv52ay304UxJ-15">
          <mxGeometry relative="1" as="geometry">
            <Array as="points">
              <mxPoint x="98" y="535" />
            </Array>
          </mxGeometry>
        </mxCell>
        <mxCell id="SP_JeRSVCv52ay304UxJ-14" value="" style="sketch=0;aspect=fixed;pointerEvents=1;shadow=0;dashed=0;html=1;strokeColor=none;labelPosition=center;verticalLabelPosition=bottom;verticalAlign=top;align=center;fillColor=#00188D;shape=mxgraph.azure.laptop" vertex="1" parent="1">
          <mxGeometry x="-10" y="710" width="216.67" height="130" as="geometry" />
        </mxCell>
        <mxCell id="SP_JeRSVCv52ay304UxJ-15" value="&lt;b&gt;Remote Repo&lt;/b&gt;" style="rounded=1;whiteSpace=wrap;html=1;" vertex="1" parent="1">
          <mxGeometry x="305" y="520" width="120" height="60" as="geometry" />
        </mxCell>
        <mxCell id="SP_JeRSVCv52ay304UxJ-19" style="edgeStyle=orthogonalEdgeStyle;rounded=0;orthogonalLoop=1;jettySize=auto;html=1;" edge="1" parent="1" source="SP_JeRSVCv52ay304UxJ-17">
          <mxGeometry relative="1" as="geometry">
            <mxPoint x="580" y="715" as="targetPoint" />
          </mxGeometry>
        </mxCell>
        <mxCell id="SP_JeRSVCv52ay304UxJ-17" value="" style="image;sketch=0;aspect=fixed;html=1;points=[];align=center;fontSize=12;image=img/lib/mscae/Person.svg;" vertex="1" parent="1">
          <mxGeometry x="448.2" y="680" width="51.8" height="70" as="geometry" />
        </mxCell>
        <mxCell id="SP_JeRSVCv52ay304UxJ-18" value="" style="image;sketch=0;aspect=fixed;html=1;points=[];align=center;fontSize=12;image=img/lib/mscae/Person.svg;" vertex="1" parent="1">
          <mxGeometry x="590" y="620" width="51.8" height="70" as="geometry" />
        </mxCell>
        <mxCell id="SP_JeRSVCv52ay304UxJ-20" value="" style="image;sketch=0;aspect=fixed;html=1;points=[];align=center;fontSize=12;image=img/lib/mscae/Person.svg;" vertex="1" parent="1">
          <mxGeometry x="694.87" y="740" width="51.8" height="70" as="geometry" />
        </mxCell>
        <mxCell id="SP_JeRSVCv52ay304UxJ-21" value="" style="image;sketch=0;aspect=fixed;html=1;points=[];align=center;fontSize=12;image=img/lib/mscae/Person.svg;" vertex="1" parent="1">
          <mxGeometry x="600" y="810" width="51.8" height="70" as="geometry" />
        </mxCell>
        <mxCell id="SP_JeRSVCv52ay304UxJ-22" value="" style="image;sketch=0;aspect=fixed;html=1;points=[];align=center;fontSize=12;image=img/lib/mscae/Person.svg;" vertex="1" parent="1">
          <mxGeometry x="410" y="810" width="51.8" height="70" as="geometry" />
        </mxCell>
        <mxCell id="SP_JeRSVCv52ay304UxJ-29" style="edgeStyle=orthogonalEdgeStyle;rounded=0;orthogonalLoop=1;jettySize=auto;html=1;" edge="1" parent="1" source="SP_JeRSVCv52ay304UxJ-23" target="SP_JeRSVCv52ay304UxJ-20">
          <mxGeometry relative="1" as="geometry" />
        </mxCell>
        <mxCell id="SP_JeRSVCv52ay304UxJ-23" value="" style="image;sketch=0;aspect=fixed;html=1;points=[];align=center;fontSize=12;image=img/lib/mscae/Person.svg;" vertex="1" parent="1">
          <mxGeometry x="612.4300000000001" y="870" width="51.8" height="70" as="geometry" />
        </mxCell>
        <mxCell id="SP_JeRSVCv52ay304UxJ-30" style="edgeStyle=orthogonalEdgeStyle;rounded=0;orthogonalLoop=1;jettySize=auto;html=1;" edge="1" parent="1" source="SP_JeRSVCv52ay304UxJ-24" target="SP_JeRSVCv52ay304UxJ-20">
          <mxGeometry relative="1" as="geometry" />
        </mxCell>
        <mxCell id="SP_JeRSVCv52ay304UxJ-24" value="" style="image;sketch=0;aspect=fixed;html=1;points=[];align=center;fontSize=12;image=img/lib/mscae/Person.svg;" vertex="1" parent="1">
          <mxGeometry x="730" y="860" width="51.8" height="70" as="geometry" />
        </mxCell>
        <mxCell id="SP_JeRSVCv52ay304UxJ-25" style="edgeStyle=orthogonalEdgeStyle;rounded=0;orthogonalLoop=1;jettySize=auto;html=1;entryX=0.42;entryY=-0.038;entryDx=0;entryDy=0;entryPerimeter=0;" edge="1" parent="1" source="SP_JeRSVCv52ay304UxJ-17" target="SP_JeRSVCv52ay304UxJ-22">
          <mxGeometry relative="1" as="geometry" />
        </mxCell>
        <mxCell id="SP_JeRSVCv52ay304UxJ-26" style="edgeStyle=orthogonalEdgeStyle;rounded=0;orthogonalLoop=1;jettySize=auto;html=1;entryX=-0.037;entryY=0.638;entryDx=0;entryDy=0;entryPerimeter=0;" edge="1" parent="1" source="SP_JeRSVCv52ay304UxJ-17" target="SP_JeRSVCv52ay304UxJ-21">
          <mxGeometry relative="1" as="geometry" />
        </mxCell>
        <mxCell id="SP_JeRSVCv52ay304UxJ-27" style="edgeStyle=orthogonalEdgeStyle;rounded=0;orthogonalLoop=1;jettySize=auto;html=1;entryX=-0.037;entryY=0.534;entryDx=0;entryDy=0;entryPerimeter=0;" edge="1" parent="1" source="SP_JeRSVCv52ay304UxJ-17" target="SP_JeRSVCv52ay304UxJ-18">
          <mxGeometry relative="1" as="geometry" />
        </mxCell>
        <mxCell id="SP_JeRSVCv52ay304UxJ-28" style="edgeStyle=orthogonalEdgeStyle;rounded=0;orthogonalLoop=1;jettySize=auto;html=1;entryX=0.648;entryY=0.975;entryDx=0;entryDy=0;entryPerimeter=0;" edge="1" parent="1" source="SP_JeRSVCv52ay304UxJ-20" target="SP_JeRSVCv52ay304UxJ-18">
          <mxGeometry relative="1" as="geometry" />
        </mxCell>
        <mxCell id="SP_JeRSVCv52ay304UxJ-35" style="edgeStyle=orthogonalEdgeStyle;rounded=0;orthogonalLoop=1;jettySize=auto;html=1;entryX=0;entryY=0.25;entryDx=0;entryDy=0;" edge="1" parent="1" source="SP_JeRSVCv52ay304UxJ-31" target="SP_JeRSVCv52ay304UxJ-34">
          <mxGeometry relative="1" as="geometry" />
        </mxCell>
        <mxCell id="SP_JeRSVCv52ay304UxJ-31" value="" style="image;sketch=0;aspect=fixed;html=1;points=[];align=center;fontSize=12;image=img/lib/mscae/Person.svg;" vertex="1" parent="1">
          <mxGeometry x="4.8700000000000045" y="970" width="51.8" height="70" as="geometry" />
        </mxCell>
        <mxCell id="SP_JeRSVCv52ay304UxJ-36" style="edgeStyle=orthogonalEdgeStyle;rounded=0;orthogonalLoop=1;jettySize=auto;html=1;" edge="1" parent="1" source="SP_JeRSVCv52ay304UxJ-32">
          <mxGeometry relative="1" as="geometry">
            <mxPoint x="200" y="930" as="targetPoint" />
          </mxGeometry>
        </mxCell>
        <mxCell id="SP_JeRSVCv52ay304UxJ-32" value="" style="image;sketch=0;aspect=fixed;html=1;points=[];align=center;fontSize=12;image=img/lib/mscae/Person.svg;" vertex="1" parent="1">
          <mxGeometry x="5.329070518200751e-15" y="1060" width="51.8" height="70" as="geometry" />
        </mxCell>
        <mxCell id="SP_JeRSVCv52ay304UxJ-37" style="edgeStyle=orthogonalEdgeStyle;rounded=0;orthogonalLoop=1;jettySize=auto;html=1;" edge="1" parent="1" source="SP_JeRSVCv52ay304UxJ-33">
          <mxGeometry relative="1" as="geometry">
            <mxPoint x="200" y="940" as="targetPoint" />
          </mxGeometry>
        </mxCell>
        <mxCell id="SP_JeRSVCv52ay304UxJ-33" value="" style="image;sketch=0;aspect=fixed;html=1;points=[];align=center;fontSize=12;image=img/lib/mscae/Person.svg;" vertex="1" parent="1">
          <mxGeometry x="56.67000000000001" y="1120" width="51.8" height="70" as="geometry" />
        </mxCell>
        <mxCell id="SP_JeRSVCv52ay304UxJ-34" value="Uber" style="rounded=1;whiteSpace=wrap;html=1;" vertex="1" parent="1">
          <mxGeometry x="206.67" y="920" width="120" height="60" as="geometry" />
        </mxCell>
        <mxCell id="SP_JeRSVCv52ay304UxJ-40" value="" style="shape=mxgraph.signs.transportation.car_1;html=1;pointerEvents=1;fillColor=#000000;strokeColor=none;verticalLabelPosition=bottom;verticalAlign=top;align=center;" vertex="1" parent="1">
          <mxGeometry x="410" y="990" width="99" height="88" as="geometry" />
        </mxCell>
        <mxCell id="SP_JeRSVCv52ay304UxJ-41" style="edgeStyle=orthogonalEdgeStyle;rounded=0;orthogonalLoop=1;jettySize=auto;html=1;entryX=0.339;entryY=0.022;entryDx=0;entryDy=0;entryPerimeter=0;" edge="1" parent="1" source="SP_JeRSVCv52ay304UxJ-34" target="SP_JeRSVCv52ay304UxJ-40">
          <mxGeometry relative="1" as="geometry" />
        </mxCell>
        <mxCell id="SP_JeRSVCv52ay304UxJ-43" value="&lt;b&gt;Local Environment&lt;/b&gt;" style="text;html=1;align=center;verticalAlign=middle;resizable=0;points=[];autosize=1;strokeColor=none;fillColor=none;" vertex="1" parent="1">
          <mxGeometry x="-80" y="150" width="130" height="30" as="geometry" />
        </mxCell>
        <mxCell id="SP_JeRSVCv52ay304UxJ-44" value="&lt;b&gt;push&lt;/b&gt;" style="text;html=1;align=center;verticalAlign=middle;resizable=0;points=[];autosize=1;strokeColor=none;fillColor=none;" vertex="1" parent="1">
          <mxGeometry x="155" y="48" width="50" height="30" as="geometry" />
        </mxCell>
        <mxCell id="SP_JeRSVCv52ay304UxJ-45" value="&lt;b&gt;pull&lt;/b&gt;" style="text;html=1;align=center;verticalAlign=middle;resizable=0;points=[];autosize=1;strokeColor=none;fillColor=none;" vertex="1" parent="1">
          <mxGeometry x="510" y="108" width="40" height="30" as="geometry" />
        </mxCell>
      </root>
    </mxGraphModel>
  </diagram>
</mxfile>
